<svg width="552" height="62" viewBox="0 0 552 62" fill="none" xmlns="http://www.w3.org/2000/svg">
<path d="M25.0312 46H0.25V44.2812C2 44.2188 3.3125 44.0625 4.1875 43.8125C5.0625 43.5417 5.67708 43.0521 6.03125 42.3438C6.40625 41.6354 6.59375 40.5938 6.59375 39.2188V7.78125C6.59375 6.23958 6.09375 5.19792 5.09375 4.65625C4.09375 4.11458 2.47917 3.77083 0.25 3.625V1.90625H26.0625C29.4167 1.90625 32.5 2.45833 35.3125 3.5625C38.1458 4.66667 40.5729 6.22917 42.5938 8.25C44.6354 10.25 46.2083 12.625 47.3125 15.375C48.4167 18.125 48.9688 21.0833 48.9688 24.25C48.9688 27.3542 48.3958 30.2396 47.25 32.9062C46.125 35.5521 44.5 37.8542 42.375 39.8125C40.25 41.7708 37.6979 43.2917 34.7188 44.375C31.7604 45.4583 28.5312 46 25.0312 46ZM9.6875 39.4062V10.5312C9.6875 8.05208 9.45833 6.3125 9 5.3125C8.54167 4.29167 7.35417 3.77083 5.4375 3.75C6.33333 4.20833 6.91667 4.78125 7.1875 5.46875C7.47917 6.13542 7.625 7.16667 7.625 8.5625V38.625C7.625 39.9167 7.55208 40.9271 7.40625 41.6562C7.26042 42.3854 7.04167 42.9375 6.75 43.3125C6.45833 43.6875 6.02083 44.0104 5.4375 44.2812C7.02083 44.2812 8.125 43.9062 8.75 43.1562C9.375 42.3854 9.6875 41.1354 9.6875 39.4062ZM14.4688 12.6562V37.875C14.4688 39.6875 14.5938 41.0104 14.8438 41.8438C15.0938 42.6562 15.6875 43.2708 16.625 43.6875C17.5625 44.0833 19.0833 44.2812 21.1875 44.2812C23.4583 44.2812 25.4896 44.0521 27.2812 43.5938C29.0729 43.1146 30.7812 42.2917 32.4062 41.125C34.3229 39.75 35.8229 38.2708 36.9062 36.6875C37.9896 35.0833 38.7708 33.2708 39.25 31.25C39.75 29.2083 40 26.9375 40 24.4375C40 17 37.8229 11.4271 33.4688 7.71875C31.7396 6.23958 29.8229 5.1875 27.7188 4.5625C25.6146 3.9375 23.1354 3.625 20.2812 3.625C18.3229 3.625 16.9375 3.91667 16.125 4.5C15.3333 5.0625 14.8542 5.88542 14.6875 6.96875C14.5417 8.03125 14.4688 9.92708 14.4688 12.6562ZM29.0625 44.2812C31.7292 44.0104 34.125 43.0938 36.25 41.5312C38.375 39.9688 40.0521 37.75 41.2812 34.875C42.5312 32 43.1562 28.5625 43.1562 24.5625C43.1562 21.6875 42.8542 19.0625 42.25 16.6875C41.6667 14.3125 40.8021 12.2396 39.6562 10.4688C38.5104 8.67708 37.1146 7.25 35.4688 6.1875C34.5104 5.54167 33.5104 5.05208 32.4688 4.71875C31.4271 4.38542 30.2917 4.10417 29.0625 3.875C37.0417 7.02083 41.0312 13.9792 41.0312 24.75C41.0312 27.9792 40.6042 30.8438 39.75 33.3438C38.9167 35.8438 37.6042 38.0104 35.8125 39.8438C34.0208 41.6562 31.7708 43.1354 29.0625 44.2812ZM60.7812 21.8125C60.7812 21.8958 60.9167 22.1979 61.1875 22.7188C61.4583 23.2396 61.5938 23.7292 61.5938 24.1875C61.5938 25.0833 61.2188 25.8854 60.4688 26.5938C59.7396 27.2812 58.8229 27.625 57.7188 27.625C56.6562 27.625 55.8125 27.3542 55.1875 26.8125C54.5625 26.25 54.25 25.6042 54.25 24.875C54.25 23.7917 54.7708 22.7292 55.8125 21.6875C56.875 20.6458 58.3229 19.8021 60.1562 19.1562C62.0104 18.4896 64.0521 18.1562 66.2812 18.1562C67.9062 18.1562 69.4167 18.4375 70.8125 19C72.2292 19.5625 73.3542 20.4167 74.1875 21.5625C75.0208 22.7083 75.4375 24.0938 75.4375 25.7188V41.5938C75.4375 42.8646 75.8021 43.5 76.5312 43.5C76.9688 43.5 77.5 43.1562 78.125 42.4688L79.2812 43.8125C78.2604 44.8333 77.3125 45.6042 76.4375 46.125C75.5833 46.6458 74.5625 46.9062 73.375 46.9062C72 46.9062 70.9271 46.6042 70.1562 46C69.3854 45.375 68.8438 44.4167 68.5312 43.125C65.6562 45.6042 62.8125 46.8438 60 46.8438C58 46.8438 56.4062 46.3229 55.2188 45.2812C54.0521 44.2396 53.4688 42.9167 53.4688 41.3125C53.4688 39.875 53.8229 38.6562 54.5312 37.6562C55.2604 36.6354 56.2083 35.7396 57.375 34.9688C58.5625 34.1771 60.3021 33.1875 62.5938 32C64.8854 30.7917 66.7708 29.7604 68.25 28.9062V24.1875C68.25 22.7708 67.9271 21.6979 67.2812 20.9688C66.6354 20.2396 65.6667 19.875 64.375 19.875C63.25 19.875 62.3646 20.0833 61.7188 20.5C61.0938 20.8958 60.7812 21.3333 60.7812 21.8125ZM69.2812 26.2188V38.5625C69.2812 41 69.5417 42.8229 70.0625 44.0312C70.5833 45.2188 71.6042 45.8125 73.125 45.8125C73.8125 45.8125 74.3646 45.7292 74.7812 45.5625C73.5312 45.375 72.6458 44.875 72.125 44.0625C71.6042 43.25 71.3438 41.9792 71.3438 40.25V25.9062C71.3438 23.7396 71.0312 22.25 70.4062 21.4375C69.8021 20.6042 68.75 20.1042 67.25 19.9375C68.0625 20.3542 68.6042 20.9583 68.875 21.75C69.1458 22.5417 69.2812 24.0312 69.2812 26.2188ZM68.25 41.0625V31.0312C65.5833 32.5312 63.7188 33.8854 62.6562 35.0938C61.6146 36.3021 61.0938 37.7604 61.0938 39.4688C61.0938 40.6146 61.4062 41.5 62.0312 42.125C62.6562 42.75 63.3854 43.0625 64.2188 43.0625C65.5312 43.0625 66.875 42.3958 68.25 41.0625ZM62.75 45.375C60.8542 45.375 59.3333 44.9896 58.1875 44.2188C57.0625 43.4479 56.5 42.3333 56.5 40.875C56.5 39.8125 56.7708 38.8125 57.3125 37.875C57.875 36.9167 58.7083 35.8542 59.8125 34.6875C58.125 35.6667 56.8125 36.6667 55.875 37.6875C54.9583 38.7083 54.5 39.9167 54.5 41.3125C54.5 42.5833 55.0521 43.6458 56.1562 44.5C57.2812 45.3333 58.5 45.75 59.8125 45.75C61.0833 45.75 62.0625 45.625 62.75 45.375ZM59.8125 25.6562C59.0625 25.7188 58.4896 25.5729 58.0938 25.2188C57.6979 24.8646 57.5 24.4479 57.5 23.9688C57.5 23.3229 57.6771 22.75 58.0312 22.25C58.3854 21.7292 59 20.9896 59.875 20.0312C58.3958 20.7812 57.2604 21.5312 56.4688 22.2812C55.6771 23.0312 55.2812 23.875 55.2812 24.8125C55.2812 25.2292 55.4896 25.625 55.9062 26C56.3438 26.3542 56.8542 26.5312 57.4375 26.5312C58.4375 26.5312 59.2292 26.2396 59.8125 25.6562ZM100.969 18.6875H111.75V20.2812C110.729 20.7188 109.865 21.2604 109.156 21.9062C108.448 22.5312 107.844 23.25 107.344 24.0625C106.865 24.8542 106.333 25.8958 105.75 27.1875C105.188 28.4583 104.625 29.8229 104.062 31.2812L95.6562 52.6562C93.4062 58.4688 90.4062 61.375 86.6562 61.375C85.4271 61.375 84.3646 61.0312 83.4688 60.3438C82.5938 59.6771 82.1562 58.8646 82.1562 57.9062C82.1562 57.0729 82.5 56.375 83.1875 55.8125C83.8958 55.25 84.7292 54.9688 85.6875 54.9688C86.1458 54.9688 86.6458 55.0833 87.1875 55.3125C87.75 55.5417 88.2917 55.7708 88.8125 56C89.3542 56.25 89.8438 56.375 90.2812 56.375C91.6562 56.375 92.8958 54.9479 94 52.0938L95.6562 47.5938L86.25 25.7188C86 25.0729 85.7188 24.4167 85.4062 23.75C85.1146 23.0625 84.7917 22.4688 84.4375 21.9688C84.0833 21.4688 83.6354 21.0729 83.0938 20.7812C82.5521 20.4688 81.8854 20.3021 81.0938 20.2812V18.6875H97.3438V20.2812C96.0521 20.3646 95.0625 20.5625 94.375 20.875C93.7083 21.1667 93.375 21.75 93.375 22.625C93.375 23.5208 93.6667 24.6771 94.25 26.0938L99.4375 38.0625L103.344 28.4688C103.865 27.2188 104.125 25.875 104.125 24.4375C104.125 22.1042 103.073 20.7188 100.969 20.2812V18.6875ZM108.281 20.4062H103.344C103.969 20.9062 104.385 21.4271 104.594 21.9688C104.823 22.4896 104.99 23.3125 105.094 24.4375C105.573 23.375 106.042 22.5625 106.5 22C106.958 21.4167 107.552 20.8854 108.281 20.4062ZM96.3125 46L97.3438 43.5L89.2812 24.8125C88.6771 23.3958 88.1667 22.3854 87.75 21.7812C87.3542 21.1562 86.875 20.7292 86.3125 20.5C85.7708 20.2708 85.0521 20.1979 84.1562 20.2812C84.9896 21.0312 85.5521 21.6979 85.8438 22.2812C86.1562 22.8646 86.6354 23.9062 87.2812 25.4062L96.3125 46ZM87.75 60.4062C86.0417 60.0104 85.1875 59.1979 85.1875 57.9688C85.1875 57.1979 85.6979 56.5625 86.7188 56.0625C86.0729 55.875 85.625 55.7812 85.375 55.7812C84.7292 55.7812 84.1979 55.9792 83.7812 56.375C83.3854 56.7917 83.1875 57.2812 83.1875 57.8438C83.1875 58.6771 83.5833 59.3438 84.375 59.8438C85.1667 60.3438 86.2917 60.5312 87.75 60.4062ZM156.406 46H131.625V44.2812C133.375 44.2188 134.688 44.0625 135.562 43.8125C136.438 43.5417 137.052 43.0521 137.406 42.3438C137.781 41.6354 137.969 40.5938 137.969 39.2188V7.78125C137.969 6.23958 137.469 5.19792 136.469 4.65625C135.469 4.11458 133.854 3.77083 131.625 3.625V1.90625H157.438C160.792 1.90625 163.875 2.45833 166.688 3.5625C169.521 4.66667 171.948 6.22917 173.969 8.25C176.01 10.25 177.583 12.625 178.688 15.375C179.792 18.125 180.344 21.0833 180.344 24.25C180.344 27.3542 179.771 30.2396 178.625 32.9062C177.5 35.5521 175.875 37.8542 173.75 39.8125C171.625 41.7708 169.073 43.2917 166.094 44.375C163.135 45.4583 159.906 46 156.406 46ZM141.062 39.4062V10.5312C141.062 8.05208 140.833 6.3125 140.375 5.3125C139.917 4.29167 138.729 3.77083 136.812 3.75C137.708 4.20833 138.292 4.78125 138.562 5.46875C138.854 6.13542 139 7.16667 139 8.5625V38.625C139 39.9167 138.927 40.9271 138.781 41.6562C138.635 42.3854 138.417 42.9375 138.125 43.3125C137.833 43.6875 137.396 44.0104 136.812 44.2812C138.396 44.2812 139.5 43.9062 140.125 43.1562C140.75 42.3854 141.062 41.1354 141.062 39.4062ZM145.844 12.6562V37.875C145.844 39.6875 145.969 41.0104 146.219 41.8438C146.469 42.6562 147.062 43.2708 148 43.6875C148.938 44.0833 150.458 44.2812 152.562 44.2812C154.833 44.2812 156.865 44.0521 158.656 43.5938C160.448 43.1146 162.156 42.2917 163.781 41.125C165.698 39.75 167.198 38.2708 168.281 36.6875C169.365 35.0833 170.146 33.2708 170.625 31.25C171.125 29.2083 171.375 26.9375 171.375 24.4375C171.375 17 169.198 11.4271 164.844 7.71875C163.115 6.23958 161.198 5.1875 159.094 4.5625C156.99 3.9375 154.51 3.625 151.656 3.625C149.698 3.625 148.312 3.91667 147.5 4.5C146.708 5.0625 146.229 5.88542 146.062 6.96875C145.917 8.03125 145.844 9.92708 145.844 12.6562ZM160.438 44.2812C163.104 44.0104 165.5 43.0938 167.625 41.5312C169.75 39.9688 171.427 37.75 172.656 34.875C173.906 32 174.531 28.5625 174.531 24.5625C174.531 21.6875 174.229 19.0625 173.625 16.6875C173.042 14.3125 172.177 12.2396 171.031 10.4688C169.885 8.67708 168.49 7.25 166.844 6.1875C165.885 5.54167 164.885 5.05208 163.844 4.71875C162.802 4.38542 161.667 4.10417 160.438 3.875C168.417 7.02083 172.406 13.9792 172.406 24.75C172.406 27.9792 171.979 30.8438 171.125 33.3438C170.292 35.8438 168.979 38.0104 167.188 39.8438C165.396 41.6562 163.146 43.1354 160.438 44.2812ZM192.156 21.8125C192.156 21.8958 192.292 22.1979 192.562 22.7188C192.833 23.2396 192.969 23.7292 192.969 24.1875C192.969 25.0833 192.594 25.8854 191.844 26.5938C191.115 27.2812 190.198 27.625 189.094 27.625C188.031 27.625 187.188 27.3542 186.562 26.8125C185.938 26.25 185.625 25.6042 185.625 24.875C185.625 23.7917 186.146 22.7292 187.188 21.6875C188.25 20.6458 189.698 19.8021 191.531 19.1562C193.385 18.4896 195.427 18.1562 197.656 18.1562C199.281 18.1562 200.792 18.4375 202.188 19C203.604 19.5625 204.729 20.4167 205.562 21.5625C206.396 22.7083 206.812 24.0938 206.812 25.7188V41.5938C206.812 42.8646 207.177 43.5 207.906 43.5C208.344 43.5 208.875 43.1562 209.5 42.4688L210.656 43.8125C209.635 44.8333 208.688 45.6042 207.812 46.125C206.958 46.6458 205.938 46.9062 204.75 46.9062C203.375 46.9062 202.302 46.6042 201.531 46C200.76 45.375 200.219 44.4167 199.906 43.125C197.031 45.6042 194.188 46.8438 191.375 46.8438C189.375 46.8438 187.781 46.3229 186.594 45.2812C185.427 44.2396 184.844 42.9167 184.844 41.3125C184.844 39.875 185.198 38.6562 185.906 37.6562C186.635 36.6354 187.583 35.7396 188.75 34.9688C189.938 34.1771 191.677 33.1875 193.969 32C196.26 30.7917 198.146 29.7604 199.625 28.9062V24.1875C199.625 22.7708 199.302 21.6979 198.656 20.9688C198.01 20.2396 197.042 19.875 195.75 19.875C194.625 19.875 193.74 20.0833 193.094 20.5C192.469 20.8958 192.156 21.3333 192.156 21.8125ZM200.656 26.2188V38.5625C200.656 41 200.917 42.8229 201.438 44.0312C201.958 45.2188 202.979 45.8125 204.5 45.8125C205.188 45.8125 205.74 45.7292 206.156 45.5625C204.906 45.375 204.021 44.875 203.5 44.0625C202.979 43.25 202.719 41.9792 202.719 40.25V25.9062C202.719 23.7396 202.406 22.25 201.781 21.4375C201.177 20.6042 200.125 20.1042 198.625 19.9375C199.438 20.3542 199.979 20.9583 200.25 21.75C200.521 22.5417 200.656 24.0312 200.656 26.2188ZM199.625 41.0625V31.0312C196.958 32.5312 195.094 33.8854 194.031 35.0938C192.99 36.3021 192.469 37.7604 192.469 39.4688C192.469 40.6146 192.781 41.5 193.406 42.125C194.031 42.75 194.76 43.0625 195.594 43.0625C196.906 43.0625 198.25 42.3958 199.625 41.0625ZM194.125 45.375C192.229 45.375 190.708 44.9896 189.562 44.2188C188.438 43.4479 187.875 42.3333 187.875 40.875C187.875 39.8125 188.146 38.8125 188.688 37.875C189.25 36.9167 190.083 35.8542 191.188 34.6875C189.5 35.6667 188.188 36.6667 187.25 37.6875C186.333 38.7083 185.875 39.9167 185.875 41.3125C185.875 42.5833 186.427 43.6458 187.531 44.5C188.656 45.3333 189.875 45.75 191.188 45.75C192.458 45.75 193.438 45.625 194.125 45.375ZM191.188 25.6562C190.438 25.7188 189.865 25.5729 189.469 25.2188C189.073 24.8646 188.875 24.4479 188.875 23.9688C188.875 23.3229 189.052 22.75 189.406 22.25C189.76 21.7292 190.375 20.9896 191.25 20.0312C189.771 20.7812 188.635 21.5312 187.844 22.2812C187.052 23.0312 186.656 23.875 186.656 24.8125C186.656 25.2292 186.865 25.625 187.281 26C187.719 26.3542 188.229 26.5312 188.812 26.5312C189.812 26.5312 190.604 26.2396 191.188 25.6562ZM237.469 35.4375H239.344L237.219 46H213.156V45.5625L230.125 20.4062H226.531C224.219 20.4062 222.24 20.8542 220.594 21.75C218.948 22.625 217.042 24.2708 214.875 26.6875H213.156L215.781 17.5312H217.5C218.229 18.0729 219.01 18.4062 219.844 18.5312C220.698 18.6354 222.073 18.6875 223.969 18.6875H239.344V19.375L222.688 44.2812H225.375C227.312 44.2812 229.01 43.875 230.469 43.0625C231.948 42.25 233.167 41.2708 234.125 40.125C235.104 38.9583 236.219 37.3958 237.469 35.4375ZM230.5 44.2812H234.969L236.25 39.0938C235.625 40.1562 234.865 41.0833 233.969 41.875C233.073 42.6667 231.917 43.4688 230.5 44.2812ZM228.594 24.375L215.219 44.2812C216.073 44.2604 216.771 44.1146 217.312 43.8438C217.875 43.5521 218.302 43.2188 218.594 42.8438C218.906 42.4688 219.354 41.8333 219.938 40.9375L233.844 20.2812C232.74 20.3438 231.875 20.6042 231.25 21.0625C230.646 21.5208 229.76 22.625 228.594 24.375ZM216.344 19.125L214.875 24.3125C215.375 23.7917 215.885 23.2708 216.406 22.75C216.948 22.2083 217.51 21.7396 218.094 21.3438C218.698 20.9479 219.417 20.5938 220.25 20.2812C219.271 20.2812 218.531 20.2292 218.031 20.125C217.552 20 216.99 19.6667 216.344 19.125ZM266.156 35.4375H268.031L265.906 46H241.844V45.5625L258.812 20.4062H255.219C252.906 20.4062 250.927 20.8542 249.281 21.75C247.635 22.625 245.729 24.2708 243.562 26.6875H241.844L244.469 17.5312H246.188C246.917 18.0729 247.698 18.4062 248.531 18.5312C249.385 18.6354 250.76 18.6875 252.656 18.6875H268.031V19.375L251.375 44.2812H254.062C256 44.2812 257.698 43.875 259.156 43.0625C260.635 42.25 261.854 41.2708 262.812 40.125C263.792 38.9583 264.906 37.3958 266.156 35.4375ZM259.188 44.2812H263.656L264.938 39.0938C264.312 40.1562 263.552 41.0833 262.656 41.875C261.76 42.6667 260.604 43.4688 259.188 44.2812ZM257.281 24.375L243.906 44.2812C244.76 44.2604 245.458 44.1146 246 43.8438C246.562 43.5521 246.99 43.2188 247.281 42.8438C247.594 42.4688 248.042 41.8333 248.625 40.9375L262.531 20.2812C261.427 20.3438 260.562 20.6042 259.938 21.0625C259.333 21.5208 258.448 22.625 257.281 24.375ZM245.031 19.125L243.562 24.3125C244.062 23.7917 244.573 23.2708 245.094 22.75C245.635 22.2083 246.198 21.7396 246.781 21.3438C247.385 20.9479 248.104 20.5938 248.938 20.2812C247.958 20.2812 247.219 20.2292 246.719 20.125C246.24 20 245.677 19.6667 245.031 19.125ZM274.5 41.125V11.5C274.5 9.91667 274.25 8.67708 273.75 7.78125C273.25 6.88542 272.094 6.10417 270.281 5.4375V4.21875L280.438 0.875H281.656V39.9688C281.656 41.5938 281.833 42.7188 282.188 43.3438C282.562 43.9688 283.5 44.2812 285 44.2812H285.844V46H270.281V44.2812H271.031C272.26 44.2812 273.146 44.0208 273.688 43.5C274.229 42.9792 274.5 42.1875 274.5 41.125ZM277.562 39.8438V11.6875C277.562 10.2083 277.49 9.03125 277.344 8.15625C277.219 7.26042 276.833 6.52083 276.188 5.9375C275.562 5.33333 274.552 5.03125 273.156 5.03125C272.469 5.03125 271.917 5.05208 271.5 5.09375C273.417 5.63542 274.562 6.4375 274.938 7.5C275.333 8.5625 275.531 9.95833 275.531 11.6875V40.9375C275.531 42.3542 275.104 43.4688 274.25 44.2812C275.708 44.2188 276.625 43.8229 277 43.0938C277.375 42.3438 277.562 41.2604 277.562 39.8438ZM312.562 38.25L313.812 39.2188C312.875 40.9688 311.76 42.4062 310.469 43.5312C309.177 44.6562 307.75 45.4896 306.188 46.0312C304.646 46.5729 303.031 46.8438 301.344 46.8438C299.052 46.8438 296.917 46.2917 294.938 45.1875C292.979 44.0833 291.427 42.4896 290.281 40.4062C289.135 38.3229 288.562 35.9583 288.562 33.3125C288.562 31.2292 288.906 29.2708 289.594 27.4375C290.302 25.6042 291.271 23.9896 292.5 22.5938C293.75 21.1979 295.188 20.1146 296.812 19.3438C298.458 18.5521 300.208 18.1562 302.062 18.1562C303.938 18.1562 305.719 18.5521 307.406 19.3438C309.115 20.1146 310.469 21.1875 311.469 22.5625C312.198 23.5625 312.719 24.5938 313.031 25.6562C313.365 26.6979 313.625 27.9583 313.812 29.4375H294.938C295.021 31.6042 295.385 33.4375 296.031 34.9375C296.698 36.4375 297.552 37.6458 298.594 38.5625C299.656 39.4792 300.781 40.1354 301.969 40.5312C303.156 40.9271 304.292 41.125 305.375 41.125C308 41.125 310.396 40.1667 312.562 38.25ZM307.031 27.4375H309.219C309.156 25.1042 308.677 23.3854 307.781 22.2812C306.885 21.1562 305.385 20.4062 303.281 20.0312C304.615 20.6354 305.573 21.4271 306.156 22.4062C306.74 23.3646 307.031 24.8333 307.031 26.8125V27.4375ZM295.125 27.4375H306.031V26.4062C306.031 25.1979 305.812 24.125 305.375 23.1875C304.938 22.2292 304.333 21.5 303.562 21C302.812 20.4792 301.948 20.2188 300.969 20.2188C299.385 20.2188 298.042 20.9271 296.938 22.3438C295.833 23.7396 295.229 25.4375 295.125 27.4375ZM295.406 21.2812C291.51 24.3646 289.562 28.4062 289.562 33.4062C289.562 37.0312 290.719 40 293.031 42.3125C295.365 44.6042 298.052 45.75 301.094 45.75C302.865 45.75 304.635 45.3958 306.406 44.6875C308.198 43.9583 309.708 42.8854 310.938 41.4688C309.667 42.2812 308.365 42.9479 307.031 43.4688C305.719 43.9688 304.146 44.2188 302.312 44.2188C299.208 44.2188 296.615 43.1354 294.531 40.9688C292.469 38.8021 291.438 35.9792 291.438 32.5C291.438 30.2917 291.781 28.3125 292.469 26.5625C293.156 24.8125 294.135 23.0521 295.406 21.2812ZM333.094 3.625V1.90625H354.812V3.625H353.844C352.219 3.625 350.969 3.77083 350.094 4.0625C349.24 4.35417 348.635 4.89583 348.281 5.6875C347.927 6.45833 347.75 7.5625 347.75 9V39.5938C347.75 40.7812 347.948 41.7083 348.344 42.375C348.76 43.0208 349.5 43.5 350.562 43.8125C351.625 44.125 353.125 44.2812 355.062 44.2812C356.708 44.2812 358.219 44.1458 359.594 43.875C360.969 43.6042 362.333 43.125 363.688 42.4375C365.042 41.75 366.438 40.7708 367.875 39.5C369.312 38.2292 370.76 36.6458 372.219 34.75H375.094L370.938 46H333.094V44.2812H333.5C335.375 44.2812 336.76 44.1146 337.656 43.7812C338.552 43.4271 339.156 42.8854 339.469 42.1562C339.802 41.4062 339.969 40.3646 339.969 39.0312V9.46875C339.969 7.90625 339.823 6.72917 339.531 5.9375C339.26 5.14583 338.625 4.5625 337.625 4.1875C336.646 3.8125 335.135 3.625 333.094 3.625ZM340.969 8.4375V40.4375C340.969 41.4583 340.781 42.25 340.406 42.8125C340.052 43.375 339.5 43.8646 338.75 44.2812C338.833 44.2812 339.01 44.3021 339.281 44.3438C339.552 44.3854 339.729 44.4062 339.812 44.4062C341.917 44.4062 342.969 42.8854 342.969 39.8438V9.84375C342.969 7.73958 342.802 6.17708 342.469 5.15625C342.156 4.13542 341.229 3.625 339.688 3.625H338.75C339.604 4.125 340.188 4.66667 340.5 5.25C340.812 5.83333 340.969 6.89583 340.969 8.4375ZM362.156 44.2812H367.875L370.562 38.125C369.375 39.5417 368.104 40.75 366.75 41.75C365.417 42.7292 363.885 43.5729 362.156 44.2812ZM388.281 18.1562V40.75C388.281 41.7083 388.375 42.4375 388.562 42.9375C388.771 43.4167 389.146 43.75 389.688 43.9375C390.25 44.125 391.104 44.2396 392.25 44.2812V46H377.656V44.2812C378.948 44.2396 379.844 43.9792 380.344 43.5C380.865 43.0208 381.125 42.1667 381.125 40.9375V26.5938C381.125 25.6979 380.823 24.8646 380.219 24.0938C379.615 23.3229 378.76 22.75 377.656 22.375V21.375L387 18.1562H388.281ZM382.156 26.6875V41.5312C382.156 42.7396 381.729 43.6562 380.875 44.2812C382.021 44.2812 382.854 44.0208 383.375 43.5C383.917 42.9792 384.188 42.125 384.188 40.9375V26.2812C384.188 24.9479 383.865 23.9271 383.219 23.2188C382.573 22.4896 381.729 22.125 380.688 22.125C380.208 22.125 379.823 22.1458 379.531 22.1875C381.281 23.1042 382.156 24.6042 382.156 26.6875ZM384.438 2.9375C385.229 2.9375 385.969 3.13542 386.656 3.53125C387.344 3.90625 387.885 4.42708 388.281 5.09375C388.677 5.76042 388.875 6.48958 388.875 7.28125C388.875 8.07292 388.677 8.8125 388.281 9.5C387.885 10.1667 387.344 10.6979 386.656 11.0938C385.969 11.4896 385.229 11.6875 384.438 11.6875C383.25 11.6875 382.229 11.25 381.375 10.375C380.521 9.5 380.094 8.46875 380.094 7.28125C380.094 6.51042 380.281 5.79167 380.656 5.125C381.052 4.4375 381.583 3.90625 382.25 3.53125C382.938 3.13542 383.667 2.9375 384.438 2.9375ZM384.969 3.9375C383.74 3.9375 382.792 4.22917 382.125 4.8125C381.458 5.39583 381.125 6.19792 381.125 7.21875C381.125 8.19792 381.448 9.01042 382.094 9.65625C382.74 10.2812 383.698 10.625 384.969 10.6875C384.302 10.0833 383.812 9.55208 383.5 9.09375C383.188 8.61458 383.031 8.01042 383.031 7.28125C383.031 5.92708 383.677 4.8125 384.969 3.9375ZM405.406 18.1562V21.5625C406.865 20.4792 408.271 19.6458 409.625 19.0625C410.979 18.4583 412.5 18.1562 414.188 18.1562C415.812 18.1562 417.385 18.5104 418.906 19.2188C420.448 19.9271 421.792 20.9062 422.938 22.1562C424.104 23.4062 425.031 24.9167 425.719 26.6875C426.427 28.4583 426.781 30.3333 426.781 32.3125C426.781 35.0625 426.135 37.5417 424.844 39.75C423.552 41.9583 421.771 43.6875 419.5 44.9375C417.25 46.1667 414.729 46.7812 411.938 46.7812C409.75 46.7812 407.573 46.3125 405.406 45.375V56.1875C405.406 57 405.49 57.6458 405.656 58.125C405.823 58.625 406.177 58.9896 406.719 59.2188C407.26 59.4479 408.021 59.5625 409 59.5625H410.594V61.2812H394.281V59.5C395.344 59.4583 396.135 59.3854 396.656 59.2812C397.177 59.1771 397.573 58.9271 397.844 58.5312C398.115 58.1354 398.25 57.5417 398.25 56.75V27.1875C398.25 25.5833 397.927 24.375 397.281 23.5625C396.656 22.7292 395.594 22.0625 394.094 21.5625V20.2812L404.188 18.1562H405.406ZM401.312 55.0938V26.875C401.312 24.9375 400.927 23.5312 400.156 22.6562C399.385 21.7812 398.104 21.4167 396.312 21.5625C397.479 22.2083 398.26 22.8958 398.656 23.625C399.073 24.3333 399.281 25.4792 399.281 27.0625V56.5C399.281 57.3333 399.188 57.9896 399 58.4688C398.812 58.9688 398.458 59.4167 397.938 59.8125C399.354 59.6875 400.271 59.2812 400.688 58.5938C401.104 57.9062 401.312 56.7396 401.312 55.0938ZM405.406 23.8438V42.2812C407.385 44.1146 409.26 45.0312 411.031 45.0312C412.469 45.0312 413.781 44.5938 414.969 43.7188C416.156 42.8438 417.104 41.5208 417.812 39.75C418.542 37.9583 418.906 35.7708 418.906 33.1875C418.906 30.6667 418.562 28.5417 417.875 26.8125C417.188 25.0625 416.24 23.75 415.031 22.875C413.844 22 412.51 21.5625 411.031 21.5625C409.219 21.5625 407.344 22.3229 405.406 23.8438ZM410.406 20.5938H411.156C413.802 20.5938 415.927 21.6979 417.531 23.9062C419.135 26.0938 419.938 29.1875 419.938 33.1875C419.938 36.2708 419.542 38.6458 418.75 40.3125C417.958 41.9792 416.865 43.3854 415.469 44.5312C416.927 43.9896 418.135 43.1979 419.094 42.1562C420.052 41.1146 420.771 39.8125 421.25 38.25C421.75 36.6875 422 34.9375 422 33C422 30.6667 421.708 28.6354 421.125 26.9062C420.562 25.1562 419.844 23.7812 418.969 22.7812C418.094 21.7812 417.156 21.0521 416.156 20.5938C415.177 20.1146 414.24 19.875 413.344 19.875C412.448 19.875 411.469 20.1146 410.406 20.5938ZM430.531 44.4688V36.2812H432.219C433.802 39.0938 435.458 41.2188 437.188 42.6562C438.917 44.0729 440.604 44.7812 442.25 44.7812C443.312 44.7812 444.26 44.4375 445.094 43.75C445.927 43.0625 446.344 42.2812 446.344 41.4062C446.344 40.2604 446.031 39.4688 445.406 39.0312C443.052 37.4688 440.792 36.2708 438.625 35.4375C432.896 33.3125 430.031 30.2812 430.031 26.3438C430.031 24.0104 430.927 22.0625 432.719 20.5C434.51 18.9375 436.927 18.1562 439.969 18.1562C441.51 18.1562 442.948 18.3229 444.281 18.6562C445.615 18.9688 447.094 19.4271 448.719 20.0312L449.031 27.4375H447.5C445.812 24.9375 444.135 23.0521 442.469 21.7812C440.823 20.5104 439.198 19.875 437.594 19.875C436.594 19.875 435.76 20.2083 435.094 20.875C434.448 21.5208 434.125 22.2396 434.125 23.0312C434.125 24.0521 434.531 24.8646 435.344 25.4688C436.156 26.0521 437.865 26.9271 440.469 28.0938C443.073 29.2604 445.354 30.3854 447.312 31.4688C448.542 32.1146 449.521 33.0208 450.25 34.1875C450.979 35.3542 451.344 36.625 451.344 38C451.344 39.6042 450.875 41.0833 449.938 42.4375C449.021 43.7917 447.74 44.8646 446.094 45.6562C444.469 46.4479 442.635 46.8438 440.594 46.8438C437.698 46.8438 434.344 46.0521 430.531 44.4688ZM431.688 39.0312V42.9375C432.729 43.3958 434.458 43.9479 436.875 44.5938C435.583 43.6979 434.625 42.8958 434 42.1875C433.375 41.4792 432.604 40.4271 431.688 39.0312ZM447 43C447.562 42.4792 447.979 42.0104 448.25 41.5938C448.521 41.1562 448.656 40.5729 448.656 39.8438C448.656 37.6146 447.031 35.8438 443.781 34.5312C440.865 33.3229 438.562 32.2604 436.875 31.3438C435.188 30.4062 433.969 29.4479 433.219 28.4688C432.469 27.4688 432.094 26.2292 432.094 24.75C432.094 23.8542 432.344 22.8542 432.844 21.75C432.302 22.4167 431.865 23.0833 431.531 23.75C431.219 24.3958 431.062 25.1979 431.062 26.1562C431.062 28.1354 431.771 29.7396 433.188 30.9688C434.604 32.1979 436.708 33.4479 439.5 34.7188C442.292 35.9688 444.302 37 445.531 37.8125C446.76 38.6042 447.375 39.7083 447.375 41.125C447.375 41.6458 447.25 42.2708 447 43ZM446.75 24.6875L446.469 21.0938C445.094 20.5312 444.021 20.1458 443.25 19.9375C442.479 19.7292 441.354 19.625 439.875 19.625C441.438 20.1667 442.677 20.8021 443.594 21.5312C444.531 22.2396 445.583 23.2917 446.75 24.6875ZM457.5 38.4375V20.6562H454.156V19.0625C455.99 17.6875 457.365 16.6354 458.281 15.9062C459.198 15.1562 460.062 14.3229 460.875 13.4062C461.708 12.4896 462.417 11.5312 463 10.5312H464.656V18.6875H472.406V20.6562H464.656V39.3438C464.656 40.7188 464.823 41.75 465.156 42.4375C465.49 43.1042 466.052 43.4375 466.844 43.4375C467.594 43.4375 468.281 43.2292 468.906 42.8125C469.552 42.3958 470.333 41.75 471.25 40.875L472.406 42.0938C470.844 43.6979 469.406 44.8958 468.094 45.6875C466.802 46.4583 465.312 46.8438 463.625 46.8438C462.021 46.8438 460.771 46.4896 459.875 45.7812C458.979 45.0729 458.354 44.1146 458 42.9062C457.667 41.6771 457.5 40.1875 457.5 38.4375ZM460.562 15.3438L458.5 17.0625V37.8125C458.5 40.5833 458.854 42.6042 459.562 43.875C460.292 45.125 461.583 45.75 463.438 45.75C464.417 45.75 465.396 45.5938 466.375 45.2812C464.479 45.3438 463.031 44.9062 462.031 43.9688C461.052 43.0104 460.562 41.4271 460.562 39.2188V15.3438ZM485.656 18.1562V40.75C485.656 41.7083 485.75 42.4375 485.938 42.9375C486.146 43.4167 486.521 43.75 487.062 43.9375C487.625 44.125 488.479 44.2396 489.625 44.2812V46H475.031V44.2812C476.323 44.2396 477.219 43.9792 477.719 43.5C478.24 43.0208 478.5 42.1667 478.5 40.9375V26.5938C478.5 25.6979 478.198 24.8646 477.594 24.0938C476.99 23.3229 476.135 22.75 475.031 22.375V21.375L484.375 18.1562H485.656ZM479.531 26.6875V41.5312C479.531 42.7396 479.104 43.6562 478.25 44.2812C479.396 44.2812 480.229 44.0208 480.75 43.5C481.292 42.9792 481.562 42.125 481.562 40.9375V26.2812C481.562 24.9479 481.24 23.9271 480.594 23.2188C479.948 22.4896 479.104 22.125 478.062 22.125C477.583 22.125 477.198 22.1458 476.906 22.1875C478.656 23.1042 479.531 24.6042 479.531 26.6875ZM481.812 2.9375C482.604 2.9375 483.344 3.13542 484.031 3.53125C484.719 3.90625 485.26 4.42708 485.656 5.09375C486.052 5.76042 486.25 6.48958 486.25 7.28125C486.25 8.07292 486.052 8.8125 485.656 9.5C485.26 10.1667 484.719 10.6979 484.031 11.0938C483.344 11.4896 482.604 11.6875 481.812 11.6875C480.625 11.6875 479.604 11.25 478.75 10.375C477.896 9.5 477.469 8.46875 477.469 7.28125C477.469 6.51042 477.656 5.79167 478.031 5.125C478.427 4.4375 478.958 3.90625 479.625 3.53125C480.312 3.13542 481.042 2.9375 481.812 2.9375ZM482.344 3.9375C481.115 3.9375 480.167 4.22917 479.5 4.8125C478.833 5.39583 478.5 6.19792 478.5 7.21875C478.5 8.19792 478.823 9.01042 479.469 9.65625C480.115 10.2812 481.073 10.625 482.344 10.6875C481.677 10.0833 481.188 9.55208 480.875 9.09375C480.562 8.61458 480.406 8.01042 480.406 7.28125C480.406 5.92708 481.052 4.8125 482.344 3.9375ZM511.219 21.875C511.219 21.3125 510.927 20.8438 510.344 20.4688C509.76 20.0729 509.052 19.875 508.219 19.875C506.656 19.875 505.24 20.3333 503.969 21.25C502.698 22.1458 501.698 23.4479 500.969 25.1562C500.26 26.8438 499.906 28.7604 499.906 30.9062C499.906 32.8854 500.323 34.6875 501.156 36.3125C502.01 37.9167 503.146 39.1667 504.562 40.0625C506 40.9583 507.562 41.4062 509.25 41.4062C510.646 41.4062 512.104 41.0938 513.625 40.4688C515.167 39.8229 516.396 39 517.312 38L518.406 39.4688C516.76 41.8438 514.781 43.6667 512.469 44.9375C510.177 46.2083 507.844 46.8438 505.469 46.8438C503.26 46.8438 501.146 46.2396 499.125 45.0312C497.125 43.8229 495.521 42.1875 494.312 40.125C493.125 38.0417 492.531 35.7708 492.531 33.3125C492.531 31.3125 492.896 29.4062 493.625 27.5938C494.354 25.7812 495.396 24.1667 496.75 22.75C498.125 21.3125 499.75 20.1875 501.625 19.375C503.5 18.5625 505.573 18.1562 507.844 18.1562C509.677 18.1562 511.344 18.4375 512.844 19C514.344 19.5417 515.521 20.3021 516.375 21.2812C517.25 22.2604 517.688 23.3333 517.688 24.5C517.688 25.5208 517.312 26.3646 516.562 27.0312C515.812 27.6979 514.927 28.0312 513.906 28.0312C512.969 28.0312 512.188 27.7083 511.562 27.0625C510.958 26.3958 510.656 25.6875 510.656 24.9375C510.656 24.7917 510.75 24.3229 510.938 23.5312C511.125 22.7188 511.219 22.1667 511.219 21.875ZM511.688 24.9375C511.688 25.6042 511.938 26.1042 512.438 26.4375C512.958 26.7708 513.521 26.9375 514.125 26.9375C514.312 26.9375 514.823 26.8542 515.656 26.6875C514.365 26.4167 513.719 25.75 513.719 24.6875C513.719 24.6042 513.76 24.3646 513.844 23.9688C513.948 23.5729 514 23.2396 514 22.9688C514 21.8229 513.188 20.9479 511.562 20.3438C512.021 20.9896 512.25 21.5833 512.25 22.125C512.25 22.4792 512.156 22.9583 511.969 23.5625C511.781 24.1667 511.688 24.625 511.688 24.9375ZM502.906 20.0938C500.906 20.8438 499.208 21.875 497.812 23.1875C496.438 24.5 495.385 26.0312 494.656 27.7812C493.927 29.5104 493.562 31.2708 493.562 33.0625C493.562 35.5 494.146 37.6875 495.312 39.625C496.479 41.5625 498.01 43.0729 499.906 44.1562C501.823 45.2188 503.76 45.75 505.719 45.75C508.573 45.75 511.26 44.8125 513.781 42.9375C511.052 43.8333 508.854 44.2812 507.188 44.2812C505.062 44.2812 503.115 43.8021 501.344 42.8438C499.573 41.8854 498.167 40.5521 497.125 38.8438C496.083 37.1354 495.562 35.2292 495.562 33.125C495.562 30.6875 496.188 28.3542 497.438 26.125C498.708 23.875 500.531 21.8646 502.906 20.0938ZM535.438 46H520.969V44.2812H521.438C522.583 44.2812 523.396 44.0938 523.875 43.7188C524.375 43.3438 524.667 42.8958 524.75 42.375C524.833 41.8542 524.875 41.0521 524.875 39.9688V11.3125C524.875 9.75 524.604 8.51042 524.062 7.59375C523.542 6.65625 522.51 5.95833 520.969 5.5V4.28125L530.906 0.9375H532.125V33.1875C537.021 28.4792 539.469 25.1771 539.469 23.2812C539.469 22.5312 539.177 21.9062 538.594 21.4062C538.031 20.9062 537.146 20.5938 535.938 20.4688V18.6875H549.25V20.4688C549.042 20.5104 548.75 20.5833 548.375 20.6875C548 20.7917 547.594 20.9271 547.156 21.0938C546.74 21.2396 546.292 21.4688 545.812 21.7812C545.333 22.0729 544.802 22.5104 544.219 23.0938C543.177 24.1771 542.615 24.7708 542.531 24.875L540.5 27.5L545.688 37.4375C546.771 39.4583 547.75 41.0104 548.625 42.0938C549.521 43.1771 550.5 43.9062 551.562 44.2812V46H538.25V44.2812C539.667 44.0938 540.375 43.6042 540.375 42.8125C540.375 42.5625 540.302 42.3021 540.156 42.0312C540.01 41.7396 539.719 41.2083 539.281 40.4375L535.125 32.6875L532.125 35.5625V41.5938C532.125 43.3229 533.229 44.2188 535.438 44.2812V46ZM544.406 20.4062H538.906C539.969 21.1771 540.5 22.1146 540.5 23.2188C540.5 23.6562 540.375 24.1875 540.125 24.8125C541.792 22.625 543.219 21.1562 544.406 20.4062ZM541.906 38.7188L537.438 30.375L535.938 31.8438L540.5 40.625C540.646 40.875 540.781 41.1042 540.906 41.3125C541.031 41.5208 541.146 41.75 541.25 42C541.354 42.25 541.406 42.5 541.406 42.75C541.406 43.2083 541.104 43.7188 540.5 44.2812C541.375 44.2604 542.042 44.0521 542.5 43.6562C542.958 43.2604 543.188 42.7396 543.188 42.0938C543.188 41.4688 542.76 40.3438 541.906 38.7188ZM528.031 40.875V11.8125C528.031 10 527.917 8.625 527.688 7.6875C527.479 6.72917 526.979 6.02083 526.188 5.5625C525.396 5.08333 524.125 4.88542 522.375 4.96875C523.771 5.57292 524.708 6.34375 525.188 7.28125C525.667 8.21875 525.906 9.5 525.906 11.125V40.625C525.906 41.6458 525.823 42.4271 525.656 42.9688C525.49 43.4896 525.104 43.9896 524.5 44.4688C526.854 44.4062 528.031 43.2083 528.031 40.875Z" fill="black"/>
</svg>
