<svg width="560" height="62" viewBox="0 0 560 62" fill="none" xmlns="http://www.w3.org/2000/svg">
<path d="M33.5312 3.625V1.90625H50.25V3.625C48.8542 3.66667 47.625 3.97917 46.5625 4.5625C45.5208 5.14583 44.6979 6 44.0938 7.125C43.4896 8.22917 43.1875 9.5625 43.1875 11.125L43.7812 46.9688H41.8438L9.90625 9.65625L10.375 34.75C10.4167 36.3125 10.5417 37.6354 10.75 38.7188C10.9583 39.7812 11.3333 40.7083 11.875 41.5C12.4167 42.2917 13.1875 42.9167 14.1875 43.375C15.2083 43.8333 16.5208 44.1354 18.125 44.2812V46H1.53125V44.2812C3.69792 44.1146 5.30208 43.5312 6.34375 42.5312C7.40625 41.5312 8.0625 40.2917 8.3125 38.8125C8.5625 37.3125 8.64583 35.4375 8.5625 33.1875L8.125 7.59375C6.9375 6.30208 5.78125 5.32292 4.65625 4.65625C3.53125 3.96875 2.36458 3.625 1.15625 3.625H0.78125V1.90625H13.6875L41.8438 34.75L41.4062 12.7812C41.4062 11.0938 41.2292 9.66667 40.875 8.5C40.5417 7.3125 39.9688 6.35417 39.1562 5.625C38.5729 5.04167 37.7292 4.5625 36.625 4.1875C35.5417 3.79167 34.5104 3.60417 33.5312 3.625ZM44.4688 3.625H37.625C38.6667 3.97917 39.5104 4.46875 40.1562 5.09375C40.8229 5.71875 41.3854 6.57292 41.8438 7.65625C42.3229 5.80208 43.1979 4.45833 44.4688 3.625ZM39.5625 39.4062L11.4062 6.5625C10.8229 5.8125 10.125 5.13542 9.3125 4.53125C8.52083 3.92708 7.39583 3.625 5.9375 3.625H4.53125C5.69792 4.04167 6.60417 4.55208 7.25 5.15625C7.89583 5.73958 8.80208 6.72917 9.96875 8.125L42.0625 45.5C42.0417 44.8958 42.0104 44.3125 41.9688 43.75C41.9479 43.1667 41.8854 42.7396 41.7812 42.4688C41.6771 42.1771 41.4792 41.8229 41.1875 41.4062C40.8958 40.9896 40.3542 40.3229 39.5625 39.4062ZM5.375 44.2812H11.9688C11.0521 43.5729 10.3958 42.9167 10 42.3125C9.625 41.7083 9.30208 40.8646 9.03125 39.7812C8.76042 40.7604 8.34375 41.6146 7.78125 42.3438C7.21875 43.0521 6.41667 43.6979 5.375 44.2812ZM63.7188 18.1562V40.75C63.7188 41.7083 63.8125 42.4375 64 42.9375C64.2083 43.4167 64.5833 43.75 65.125 43.9375C65.6875 44.125 66.5417 44.2396 67.6875 44.2812V46H53.0938V44.2812C54.3854 44.2396 55.2812 43.9792 55.7812 43.5C56.3021 43.0208 56.5625 42.1667 56.5625 40.9375V26.5938C56.5625 25.6979 56.2604 24.8646 55.6562 24.0938C55.0521 23.3229 54.1979 22.75 53.0938 22.375V21.375L62.4375 18.1562H63.7188ZM57.5938 26.6875V41.5312C57.5938 42.7396 57.1667 43.6562 56.3125 44.2812C57.4583 44.2812 58.2917 44.0208 58.8125 43.5C59.3542 42.9792 59.625 42.125 59.625 40.9375V26.2812C59.625 24.9479 59.3021 23.9271 58.6562 23.2188C58.0104 22.4896 57.1667 22.125 56.125 22.125C55.6458 22.125 55.2604 22.1458 54.9688 22.1875C56.7188 23.1042 57.5938 24.6042 57.5938 26.6875ZM59.875 2.9375C60.6667 2.9375 61.4062 3.13542 62.0938 3.53125C62.7812 3.90625 63.3229 4.42708 63.7188 5.09375C64.1146 5.76042 64.3125 6.48958 64.3125 7.28125C64.3125 8.07292 64.1146 8.8125 63.7188 9.5C63.3229 10.1667 62.7812 10.6979 62.0938 11.0938C61.4062 11.4896 60.6667 11.6875 59.875 11.6875C58.6875 11.6875 57.6667 11.25 56.8125 10.375C55.9583 9.5 55.5312 8.46875 55.5312 7.28125C55.5312 6.51042 55.7188 5.79167 56.0938 5.125C56.4896 4.4375 57.0208 3.90625 57.6875 3.53125C58.375 3.13542 59.1042 2.9375 59.875 2.9375ZM60.4062 3.9375C59.1771 3.9375 58.2292 4.22917 57.5625 4.8125C56.8958 5.39583 56.5625 6.19792 56.5625 7.21875C56.5625 8.19792 56.8854 9.01042 57.5312 9.65625C58.1771 10.2812 59.1354 10.625 60.4062 10.6875C59.7396 10.0833 59.25 9.55208 58.9375 9.09375C58.625 8.61458 58.4688 8.01042 58.4688 7.28125C58.4688 5.92708 59.1146 4.8125 60.4062 3.9375ZM71.4375 27.9375C71.4375 25.2292 72.5 22.9271 74.625 21.0312C76.75 19.1146 79.5521 18.1562 83.0312 18.1562C86.8021 18.1562 90.1042 19.3542 92.9375 21.75C93.7083 21.0208 94.5521 20.4583 95.4688 20.0625C96.3854 19.6458 97.2708 19.4375 98.125 19.4375C99.3125 19.4375 100.292 19.7604 101.062 20.4062C101.833 21.0521 102.219 21.8646 102.219 22.8438C102.219 23.5104 101.979 24.1042 101.5 24.625C101.042 25.1458 100.448 25.4062 99.7188 25.4062C99.2812 25.4062 98.875 25.2917 98.5 25.0625C98.1458 24.8125 97.75 24.4479 97.3125 23.9688C96.8958 23.4688 96.5417 23.1042 96.25 22.875C95.9583 22.625 95.625 22.5 95.25 22.5C94.9167 22.5 94.5104 22.6562 94.0312 22.9688C95.4062 24.8229 96.0938 26.6771 96.0938 28.5312C96.0938 30.1979 95.6146 31.7708 94.6562 33.25C93.7188 34.7292 92.4479 35.8854 90.8438 36.7188C89.8021 37.2396 88.7917 37.5938 87.8125 37.7812C86.8542 37.9479 85.7917 38.0625 84.625 38.125C82.25 38.2917 80.3958 38.5938 79.0625 39.0312C77.7292 39.4688 77.0625 40.2812 77.0625 41.4688C77.0625 42.9896 78.3646 43.75 80.9688 43.75C81.8438 43.7292 82.625 43.7188 83.3125 43.7188C84.0208 43.6979 84.9688 43.6875 86.1562 43.6875C90.2396 43.6875 93.2917 44.2708 95.3125 45.4375C97.3542 46.5833 98.375 48.5208 98.375 51.25C98.375 52.7083 98.0521 54.0521 97.4062 55.2812C96.7604 56.5312 95.7708 57.6042 94.4375 58.5C93.125 59.3958 91.4167 60.0938 89.3125 60.5938C87.2292 61.1146 84.8125 61.375 82.0625 61.375C78.0417 61.375 74.9792 60.8021 72.875 59.6562C70.7708 58.5104 69.7188 56.9896 69.7188 55.0938C69.7188 53.7604 70.2292 52.5729 71.25 51.5312C72.2917 50.4896 73.8021 49.9062 75.7812 49.7812C73.0938 48.5938 71.75 46.8854 71.75 44.6562C71.75 43.1979 72.375 41.8438 73.625 40.5938C74.875 39.3438 76.6458 38.2917 78.9375 37.4375C73.9375 35.2917 71.4375 32.125 71.4375 27.9375ZM85.5938 19.5625C86.9688 20.4792 87.9583 21.5833 88.5625 22.875C89.1875 24.1667 89.5 25.8542 89.5 27.9375C89.5 31.7292 88.4479 34.5312 86.3438 36.3438C89.7604 35.1979 91.4688 32.5521 91.4688 28.4062C91.4688 23.3438 89.5104 20.3958 85.5938 19.5625ZM88.4688 27.75C88.4688 25.2917 88 23.3646 87.0625 21.9688C86.125 20.5729 84.9896 19.875 83.6562 19.875C82.3021 19.875 81.1875 20.6042 80.3125 22.0625C79.4375 23.5208 79 25.4167 79 27.75C79 30.3542 79.4375 32.4271 80.3125 33.9688C81.2083 35.5104 82.4062 36.2812 83.9062 36.2812C85.2604 36.2812 86.3542 35.5417 87.1875 34.0625C88.0417 32.5625 88.4688 30.4583 88.4688 27.75ZM81.375 19.125C79.6667 19.3333 78.125 19.8646 76.75 20.7188C75.375 21.5521 74.3125 22.5938 73.5625 23.8438C72.8333 25.0938 72.4688 26.4375 72.4688 27.875C72.4688 29.9167 73.1146 31.7188 74.4062 33.2812C75.7188 34.8438 77.6979 35.9688 80.3438 36.6562C78.4271 35.5312 76.9896 34.2292 76.0312 32.75C75.0938 31.25 74.625 29.6979 74.625 28.0938C74.625 26.3646 75.1875 24.7083 76.3125 23.125C77.4375 21.5417 79.125 20.2083 81.375 19.125ZM76.5 39.6562C75.2708 40.4271 74.3438 41.2083 73.7188 42C73.0938 42.7917 72.7812 43.7188 72.7812 44.7812C72.7812 46.1146 73.4688 47.2188 74.8438 48.0938C76.2396 48.9896 78.0938 49.4479 80.4062 49.4688C85.0521 49.5104 88.1667 49.5729 89.75 49.6562C91.3542 49.7604 92.7812 50.1458 94.0312 50.8125C95.3021 51.5 95.9375 52.625 95.9375 54.1875C95.9375 54.3333 95.8958 54.6562 95.8125 55.1562C96.375 54.1562 96.6562 53.2812 96.6562 52.5312C96.6562 50.9479 95.9583 49.7292 94.5625 48.875C93.1667 48.0417 91.0938 47.5938 88.3438 47.5312C86.3646 47.4896 84.3958 47.4375 82.4375 47.375C80.4792 47.3333 78.9583 47.2083 77.875 47C76.8125 46.7917 76 46.4167 75.4375 45.875C74.8958 45.3333 74.625 44.5625 74.625 43.5625C74.625 42.875 74.7812 42.2396 75.0938 41.6562C75.4271 41.0521 75.8958 40.3854 76.5 39.6562ZM83.1562 59.875C85.5729 59.875 87.6562 59.6458 89.4062 59.1875C91.1771 58.7292 92.5417 58.0521 93.5 57.1562C94.4583 56.2812 94.9375 55.2917 94.9375 54.1875C94.9375 51.75 92.1354 50.5312 86.5312 50.5312C84.0312 50.5312 81.9896 50.6667 80.4062 50.9375C78.8229 51.2083 77.6042 51.6979 76.75 52.4062C75.8958 53.1146 75.4688 54.0729 75.4688 55.2812C75.4688 56.6771 76.1458 57.7917 77.5 58.625C78.8542 59.4583 80.7396 59.875 83.1562 59.875ZM76.5 59.875C74.0625 58.5833 72.8438 57.0104 72.8438 55.1562C72.8438 54.0938 73.2292 53.2083 74 52.5C74.7708 51.7917 75.9062 51.0938 77.4062 50.4062C75.2396 50.5938 73.5833 51.0938 72.4375 51.9062C71.3125 52.7188 70.75 53.7604 70.75 55.0312C70.75 56.1146 71.2396 57.0833 72.2188 57.9375C73.1979 58.8125 74.625 59.4583 76.5 59.875ZM100.938 21.875C100.688 22.25 100.302 22.4375 99.7812 22.4375C99.3854 22.4375 98.8021 22.2292 98.0312 21.8125C97.2604 21.375 96.6146 21.1562 96.0938 21.1562C95.8854 21.1562 95.6771 21.1979 95.4688 21.2812C95.2812 21.3646 95.1042 21.4375 94.9375 21.5C95.1042 21.4583 95.3125 21.4375 95.5625 21.4375C96.1042 21.4375 96.8333 21.9479 97.75 22.9688C98.4375 23.8646 99.0938 24.3125 99.7188 24.3125C100.198 24.3125 100.562 24.1458 100.812 23.8125C101.062 23.4792 101.188 23.1354 101.188 22.7812C101.188 22.5104 101.104 22.2083 100.938 21.875ZM137.156 44.2812V46H121.844V44.2812C122.656 44.2396 123.271 44.1875 123.688 44.125C124.125 44.0417 124.51 43.8854 124.844 43.6562C125.177 43.4271 125.417 43.0833 125.562 42.625C125.729 42.1458 125.812 41.5417 125.812 40.8125V26.1562C125.812 24.2188 125.375 22.8021 124.5 21.9062C123.625 20.9896 122.573 20.5312 121.344 20.5312C119.281 20.5312 116.833 21.8125 114 24.375V41.125C114 42.3333 114.281 43.1458 114.844 43.5625C115.427 43.9792 116.552 44.2188 118.219 44.2812V46H102.781V44.2812C104.177 44.2396 105.188 44.0729 105.812 43.7812C106.438 43.4688 106.75 42.7396 106.75 41.5938V11.125C106.75 8.27083 105.281 6.47917 102.344 5.75V4.46875L112.719 1.1875H114V22.25C115.5 20.9375 117.125 19.9271 118.875 19.2188C120.625 18.5104 122.385 18.1562 124.156 18.1562C125.99 18.1562 127.562 18.4792 128.875 19.125C130.208 19.7708 131.24 20.7396 131.969 22.0312C132.698 23.3021 133.062 24.875 133.062 26.75V39.7188C133.062 40.9688 133.094 41.8542 133.156 42.375C133.24 42.8958 133.521 43.3438 134 43.7188C134.5 44.0938 135.312 44.2812 136.438 44.2812H137.156ZM126.844 24.9375V41.1875C126.844 41.9792 126.75 42.5729 126.562 42.9688C126.375 43.3646 126.062 43.7812 125.625 44.2188C126.958 44.1979 127.844 43.875 128.281 43.25C128.74 42.625 128.969 41.625 128.969 40.25V26.9375C128.969 25.3125 128.854 24.0521 128.625 23.1562C128.396 22.2396 127.885 21.5 127.094 20.9375C126.302 20.3542 125.073 20.0208 123.406 19.9375C125.698 20.7917 126.844 22.4583 126.844 24.9375ZM107.781 11.125V40.75C107.781 41.6667 107.719 42.3542 107.594 42.8125C107.49 43.25 107.25 43.6771 106.875 44.0938H107.719C108.198 44.0938 108.677 43.8333 109.156 43.3125C109.635 42.7708 109.875 42 109.875 41V10.875C109.875 9.41667 109.688 8.30208 109.312 7.53125C108.979 6.86458 108.469 6.32292 107.781 5.90625C107.115 5.48958 106.406 5.28125 105.656 5.28125C105.323 5.28125 104.75 5.35417 103.938 5.5C105.458 6.0625 106.479 6.79167 107 7.6875C107.521 8.5625 107.781 9.70833 107.781 11.125ZM142.938 38.4375V20.6562H139.594V19.0625C141.427 17.6875 142.802 16.6354 143.719 15.9062C144.635 15.1562 145.5 14.3229 146.312 13.4062C147.146 12.4896 147.854 11.5312 148.438 10.5312H150.094V18.6875H157.844V20.6562H150.094V39.3438C150.094 40.7188 150.26 41.75 150.594 42.4375C150.927 43.1042 151.49 43.4375 152.281 43.4375C153.031 43.4375 153.719 43.2292 154.344 42.8125C154.99 42.3958 155.771 41.75 156.688 40.875L157.844 42.0938C156.281 43.6979 154.844 44.8958 153.531 45.6875C152.24 46.4583 150.75 46.8438 149.062 46.8438C147.458 46.8438 146.208 46.4896 145.312 45.7812C144.417 45.0729 143.792 44.1146 143.438 42.9062C143.104 41.6771 142.938 40.1875 142.938 38.4375ZM146 15.3438L143.938 17.0625V37.8125C143.938 40.5833 144.292 42.6042 145 43.875C145.729 45.125 147.021 45.75 148.875 45.75C149.854 45.75 150.833 45.5938 151.812 45.2812C149.917 45.3438 148.469 44.9062 147.469 43.9688C146.49 43.0104 146 41.4271 146 39.2188V15.3438ZM204.5 35.3125L218.156 1.90625H231.656V3.625C229.552 3.64583 228.073 3.91667 227.219 4.4375C226.365 4.95833 225.865 5.70833 225.719 6.6875C225.573 7.66667 225.5 9.46875 225.5 12.0938V39.0938C225.5 40.4688 225.677 41.5104 226.031 42.2188C226.406 42.9271 227 43.4271 227.812 43.7188C228.625 43.9896 229.906 44.1771 231.656 44.2812V46H211.5V44.2812C213.5 44.2604 214.948 44.0104 215.844 43.5312C216.74 43.0521 217.271 42.4167 217.438 41.625C217.604 40.8125 217.688 39.4792 217.688 37.625V7.46875L202.156 46H200.344L185 8.6875V34.2812C185 37.1562 185.542 39.4062 186.625 41.0312C187.729 42.6354 189.552 43.7188 192.094 44.2812V46H176.281V44.2812C178.51 44.0521 180.229 43.1875 181.438 41.6875C182.646 40.1667 183.25 38.0417 183.25 35.3125V6.3125C182.396 5.375 181.375 4.67708 180.188 4.21875C179 3.76042 177.698 3.5625 176.281 3.625V1.90625H190.562L204.5 35.3125ZM220.719 38.7812V8.625C220.719 6.16667 220.906 4.5 221.281 3.625C220.448 3.6875 219.854 3.92708 219.5 4.34375C219.146 4.73958 218.927 5.30208 218.844 6.03125C218.76 6.73958 218.719 7.88542 218.719 9.46875V39.5938C218.719 41.0938 218.562 42.125 218.25 42.6875C217.958 43.2292 217.344 43.7604 216.406 44.2812H217.5C218.938 44.2812 219.833 43.875 220.188 43.0625C220.542 42.2292 220.719 40.8021 220.719 38.7812ZM182.312 3.625H181.156C182.448 4.125 183.458 4.82292 184.188 5.71875C184.938 6.59375 185.698 7.96875 186.469 9.84375L200.938 44.2812C201.396 43.4479 201.625 42.7188 201.625 42.0938C201.625 41.5104 201.396 40.6771 200.938 39.5938L188.5 9.40625C187.729 7.42708 186.906 5.96875 186.031 5.03125C185.177 4.09375 183.938 3.625 182.312 3.625ZM179.875 44.2812H186.469C185.719 43.8854 185.104 43.3438 184.625 42.6562C184.167 41.9479 183.823 41.125 183.594 40.1875C183.302 41.0417 182.844 41.8021 182.219 42.4688C181.615 43.1146 180.833 43.7188 179.875 44.2812ZM253.969 20.5312V18.6875H265.156V39.9688C265.156 40.8229 265.302 41.4583 265.594 41.875C265.906 42.2917 266.333 42.5625 266.875 42.6875C267.438 42.8125 268.188 42.875 269.125 42.875H269.406V44.6562L258 46.8438V42.5312C254.562 45.4062 251.146 46.8438 247.75 46.8438C245.083 46.8438 242.958 46.0521 241.375 44.4688C239.792 42.8854 239 40.6458 239 37.75V26.875C239 25.25 238.948 24.0938 238.844 23.4062C238.74 22.7188 238.385 22.125 237.781 21.625C237.177 21.125 236.177 20.7604 234.781 20.5312V18.6875H246.219V37.1562C246.219 38.7396 246.354 40.0208 246.625 41C246.917 41.9792 247.385 42.7188 248.031 43.2188C248.698 43.6979 249.562 43.9375 250.625 43.9375C252.938 43.9375 255.396 42.7917 258 40.5V25.5312C258 22.3646 256.656 20.6979 253.969 20.5312ZM261.062 41.9688V25.1875C261.062 23.7292 260.865 22.5729 260.469 21.7188C260.073 20.8438 259.208 20.4062 257.875 20.4062C257.833 20.4062 257.677 20.4271 257.406 20.4688C257.135 20.5104 256.969 20.5312 256.906 20.5312C257.74 21.0521 258.302 21.7083 258.594 22.5C258.885 23.2708 259.031 24.2604 259.031 25.4688V45.2812C259.76 45.0312 260.281 44.6667 260.594 44.1875C260.906 43.6875 261.062 42.9479 261.062 41.9688ZM242.125 38.375V24.3125C242.125 21.7083 241.104 20.4062 239.062 20.4062C239.021 20.4062 238.844 20.4271 238.531 20.4688C238.219 20.5104 238.031 20.5312 237.969 20.5312C238.844 21.1979 239.406 21.9167 239.656 22.6875C239.906 23.4583 240.031 24.4271 240.031 25.5938V37.1562C240.031 39.9062 240.688 42.0625 242 43.625C243.333 45.1667 245.146 45.9375 247.438 45.9375C248.104 45.9375 248.75 45.8958 249.375 45.8125C247.021 45.625 245.219 44.8958 243.969 43.625C242.74 42.3542 242.125 40.6042 242.125 38.375ZM272.656 44.4688V36.2812H274.344C275.927 39.0938 277.583 41.2188 279.312 42.6562C281.042 44.0729 282.729 44.7812 284.375 44.7812C285.438 44.7812 286.385 44.4375 287.219 43.75C288.052 43.0625 288.469 42.2812 288.469 41.4062C288.469 40.2604 288.156 39.4688 287.531 39.0312C285.177 37.4688 282.917 36.2708 280.75 35.4375C275.021 33.3125 272.156 30.2812 272.156 26.3438C272.156 24.0104 273.052 22.0625 274.844 20.5C276.635 18.9375 279.052 18.1562 282.094 18.1562C283.635 18.1562 285.073 18.3229 286.406 18.6562C287.74 18.9688 289.219 19.4271 290.844 20.0312L291.156 27.4375H289.625C287.938 24.9375 286.26 23.0521 284.594 21.7812C282.948 20.5104 281.323 19.875 279.719 19.875C278.719 19.875 277.885 20.2083 277.219 20.875C276.573 21.5208 276.25 22.2396 276.25 23.0312C276.25 24.0521 276.656 24.8646 277.469 25.4688C278.281 26.0521 279.99 26.9271 282.594 28.0938C285.198 29.2604 287.479 30.3854 289.438 31.4688C290.667 32.1146 291.646 33.0208 292.375 34.1875C293.104 35.3542 293.469 36.625 293.469 38C293.469 39.6042 293 41.0833 292.062 42.4375C291.146 43.7917 289.865 44.8646 288.219 45.6562C286.594 46.4479 284.76 46.8438 282.719 46.8438C279.823 46.8438 276.469 46.0521 272.656 44.4688ZM273.812 39.0312V42.9375C274.854 43.3958 276.583 43.9479 279 44.5938C277.708 43.6979 276.75 42.8958 276.125 42.1875C275.5 41.4792 274.729 40.4271 273.812 39.0312ZM289.125 43C289.688 42.4792 290.104 42.0104 290.375 41.5938C290.646 41.1562 290.781 40.5729 290.781 39.8438C290.781 37.6146 289.156 35.8438 285.906 34.5312C282.99 33.3229 280.688 32.2604 279 31.3438C277.312 30.4062 276.094 29.4479 275.344 28.4688C274.594 27.4688 274.219 26.2292 274.219 24.75C274.219 23.8542 274.469 22.8542 274.969 21.75C274.427 22.4167 273.99 23.0833 273.656 23.75C273.344 24.3958 273.188 25.1979 273.188 26.1562C273.188 28.1354 273.896 29.7396 275.312 30.9688C276.729 32.1979 278.833 33.4479 281.625 34.7188C284.417 35.9688 286.427 37 287.656 37.8125C288.885 38.6042 289.5 39.7083 289.5 41.125C289.5 41.6458 289.375 42.2708 289.125 43ZM288.875 24.6875L288.594 21.0938C287.219 20.5312 286.146 20.1458 285.375 19.9375C284.604 19.7292 283.479 19.625 282 19.625C283.562 20.1667 284.802 20.8021 285.719 21.5312C286.656 22.2396 287.708 23.2917 288.875 24.6875ZM320.75 38.25L322 39.2188C321.062 40.9688 319.948 42.4062 318.656 43.5312C317.365 44.6562 315.938 45.4896 314.375 46.0312C312.833 46.5729 311.219 46.8438 309.531 46.8438C307.24 46.8438 305.104 46.2917 303.125 45.1875C301.167 44.0833 299.615 42.4896 298.469 40.4062C297.323 38.3229 296.75 35.9583 296.75 33.3125C296.75 31.2292 297.094 29.2708 297.781 27.4375C298.49 25.6042 299.458 23.9896 300.688 22.5938C301.938 21.1979 303.375 20.1146 305 19.3438C306.646 18.5521 308.396 18.1562 310.25 18.1562C312.125 18.1562 313.906 18.5521 315.594 19.3438C317.302 20.1146 318.656 21.1875 319.656 22.5625C320.385 23.5625 320.906 24.5938 321.219 25.6562C321.552 26.6979 321.812 27.9583 322 29.4375H303.125C303.208 31.6042 303.573 33.4375 304.219 34.9375C304.885 36.4375 305.74 37.6458 306.781 38.5625C307.844 39.4792 308.969 40.1354 310.156 40.5312C311.344 40.9271 312.479 41.125 313.562 41.125C316.188 41.125 318.583 40.1667 320.75 38.25ZM315.219 27.4375H317.406C317.344 25.1042 316.865 23.3854 315.969 22.2812C315.073 21.1562 313.573 20.4062 311.469 20.0312C312.802 20.6354 313.76 21.4271 314.344 22.4062C314.927 23.3646 315.219 24.8333 315.219 26.8125V27.4375ZM303.312 27.4375H314.219V26.4062C314.219 25.1979 314 24.125 313.562 23.1875C313.125 22.2292 312.521 21.5 311.75 21C311 20.4792 310.135 20.2188 309.156 20.2188C307.573 20.2188 306.229 20.9271 305.125 22.3438C304.021 23.7396 303.417 25.4375 303.312 27.4375ZM303.594 21.2812C299.698 24.3646 297.75 28.4062 297.75 33.4062C297.75 37.0312 298.906 40 301.219 42.3125C303.552 44.6042 306.24 45.75 309.281 45.75C311.052 45.75 312.823 45.3958 314.594 44.6875C316.385 43.9583 317.896 42.8854 319.125 41.4688C317.854 42.2812 316.552 42.9479 315.219 43.4688C313.906 43.9688 312.333 44.2188 310.5 44.2188C307.396 44.2188 304.802 43.1354 302.719 40.9688C300.656 38.8021 299.625 35.9792 299.625 32.5C299.625 30.2917 299.969 28.3125 300.656 26.5625C301.344 24.8125 302.323 23.0521 303.594 21.2812ZM341.281 3.625V1.90625H363V3.625H362.031C360.406 3.625 359.156 3.77083 358.281 4.0625C357.427 4.35417 356.823 4.89583 356.469 5.6875C356.115 6.45833 355.938 7.5625 355.938 9V39.5938C355.938 40.7812 356.135 41.7083 356.531 42.375C356.948 43.0208 357.688 43.5 358.75 43.8125C359.812 44.125 361.312 44.2812 363.25 44.2812C364.896 44.2812 366.406 44.1458 367.781 43.875C369.156 43.6042 370.521 43.125 371.875 42.4375C373.229 41.75 374.625 40.7708 376.062 39.5C377.5 38.2292 378.948 36.6458 380.406 34.75H383.281L379.125 46H341.281V44.2812H341.688C343.562 44.2812 344.948 44.1146 345.844 43.7812C346.74 43.4271 347.344 42.8854 347.656 42.1562C347.99 41.4062 348.156 40.3646 348.156 39.0312V9.46875C348.156 7.90625 348.01 6.72917 347.719 5.9375C347.448 5.14583 346.812 4.5625 345.812 4.1875C344.833 3.8125 343.323 3.625 341.281 3.625ZM349.156 8.4375V40.4375C349.156 41.4583 348.969 42.25 348.594 42.8125C348.24 43.375 347.688 43.8646 346.938 44.2812C347.021 44.2812 347.198 44.3021 347.469 44.3438C347.74 44.3854 347.917 44.4062 348 44.4062C350.104 44.4062 351.156 42.8854 351.156 39.8438V9.84375C351.156 7.73958 350.99 6.17708 350.656 5.15625C350.344 4.13542 349.417 3.625 347.875 3.625H346.938C347.792 4.125 348.375 4.66667 348.688 5.25C349 5.83333 349.156 6.89583 349.156 8.4375ZM370.344 44.2812H376.062L378.75 38.125C377.562 39.5417 376.292 40.75 374.938 41.75C373.604 42.7292 372.073 43.5729 370.344 44.2812ZM396.469 18.1562V40.75C396.469 41.7083 396.562 42.4375 396.75 42.9375C396.958 43.4167 397.333 43.75 397.875 43.9375C398.438 44.125 399.292 44.2396 400.438 44.2812V46H385.844V44.2812C387.135 44.2396 388.031 43.9792 388.531 43.5C389.052 43.0208 389.312 42.1667 389.312 40.9375V26.5938C389.312 25.6979 389.01 24.8646 388.406 24.0938C387.802 23.3229 386.948 22.75 385.844 22.375V21.375L395.188 18.1562H396.469ZM390.344 26.6875V41.5312C390.344 42.7396 389.917 43.6562 389.062 44.2812C390.208 44.2812 391.042 44.0208 391.562 43.5C392.104 42.9792 392.375 42.125 392.375 40.9375V26.2812C392.375 24.9479 392.052 23.9271 391.406 23.2188C390.76 22.4896 389.917 22.125 388.875 22.125C388.396 22.125 388.01 22.1458 387.719 22.1875C389.469 23.1042 390.344 24.6042 390.344 26.6875ZM392.625 2.9375C393.417 2.9375 394.156 3.13542 394.844 3.53125C395.531 3.90625 396.073 4.42708 396.469 5.09375C396.865 5.76042 397.062 6.48958 397.062 7.28125C397.062 8.07292 396.865 8.8125 396.469 9.5C396.073 10.1667 395.531 10.6979 394.844 11.0938C394.156 11.4896 393.417 11.6875 392.625 11.6875C391.438 11.6875 390.417 11.25 389.562 10.375C388.708 9.5 388.281 8.46875 388.281 7.28125C388.281 6.51042 388.469 5.79167 388.844 5.125C389.24 4.4375 389.771 3.90625 390.438 3.53125C391.125 3.13542 391.854 2.9375 392.625 2.9375ZM393.156 3.9375C391.927 3.9375 390.979 4.22917 390.312 4.8125C389.646 5.39583 389.312 6.19792 389.312 7.21875C389.312 8.19792 389.635 9.01042 390.281 9.65625C390.927 10.2812 391.885 10.625 393.156 10.6875C392.49 10.0833 392 9.55208 391.688 9.09375C391.375 8.61458 391.219 8.01042 391.219 7.28125C391.219 5.92708 391.865 4.8125 393.156 3.9375ZM413.594 18.1562V21.5625C415.052 20.4792 416.458 19.6458 417.812 19.0625C419.167 18.4583 420.688 18.1562 422.375 18.1562C424 18.1562 425.573 18.5104 427.094 19.2188C428.635 19.9271 429.979 20.9062 431.125 22.1562C432.292 23.4062 433.219 24.9167 433.906 26.6875C434.615 28.4583 434.969 30.3333 434.969 32.3125C434.969 35.0625 434.323 37.5417 433.031 39.75C431.74 41.9583 429.958 43.6875 427.688 44.9375C425.438 46.1667 422.917 46.7812 420.125 46.7812C417.938 46.7812 415.76 46.3125 413.594 45.375V56.1875C413.594 57 413.677 57.6458 413.844 58.125C414.01 58.625 414.365 58.9896 414.906 59.2188C415.448 59.4479 416.208 59.5625 417.188 59.5625H418.781V61.2812H402.469V59.5C403.531 59.4583 404.323 59.3854 404.844 59.2812C405.365 59.1771 405.76 58.9271 406.031 58.5312C406.302 58.1354 406.438 57.5417 406.438 56.75V27.1875C406.438 25.5833 406.115 24.375 405.469 23.5625C404.844 22.7292 403.781 22.0625 402.281 21.5625V20.2812L412.375 18.1562H413.594ZM409.5 55.0938V26.875C409.5 24.9375 409.115 23.5312 408.344 22.6562C407.573 21.7812 406.292 21.4167 404.5 21.5625C405.667 22.2083 406.448 22.8958 406.844 23.625C407.26 24.3333 407.469 25.4792 407.469 27.0625V56.5C407.469 57.3333 407.375 57.9896 407.188 58.4688C407 58.9688 406.646 59.4167 406.125 59.8125C407.542 59.6875 408.458 59.2812 408.875 58.5938C409.292 57.9062 409.5 56.7396 409.5 55.0938ZM413.594 23.8438V42.2812C415.573 44.1146 417.448 45.0312 419.219 45.0312C420.656 45.0312 421.969 44.5938 423.156 43.7188C424.344 42.8438 425.292 41.5208 426 39.75C426.729 37.9583 427.094 35.7708 427.094 33.1875C427.094 30.6667 426.75 28.5417 426.062 26.8125C425.375 25.0625 424.427 23.75 423.219 22.875C422.031 22 420.698 21.5625 419.219 21.5625C417.406 21.5625 415.531 22.3229 413.594 23.8438ZM418.594 20.5938H419.344C421.99 20.5938 424.115 21.6979 425.719 23.9062C427.323 26.0938 428.125 29.1875 428.125 33.1875C428.125 36.2708 427.729 38.6458 426.938 40.3125C426.146 41.9792 425.052 43.3854 423.656 44.5312C425.115 43.9896 426.323 43.1979 427.281 42.1562C428.24 41.1146 428.958 39.8125 429.438 38.25C429.938 36.6875 430.188 34.9375 430.188 33C430.188 30.6667 429.896 28.6354 429.312 26.9062C428.75 25.1562 428.031 23.7812 427.156 22.7812C426.281 21.7812 425.344 21.0521 424.344 20.5938C423.365 20.1146 422.427 19.875 421.531 19.875C420.635 19.875 419.656 20.1146 418.594 20.5938ZM438.719 44.4688V36.2812H440.406C441.99 39.0938 443.646 41.2188 445.375 42.6562C447.104 44.0729 448.792 44.7812 450.438 44.7812C451.5 44.7812 452.448 44.4375 453.281 43.75C454.115 43.0625 454.531 42.2812 454.531 41.4062C454.531 40.2604 454.219 39.4688 453.594 39.0312C451.24 37.4688 448.979 36.2708 446.812 35.4375C441.083 33.3125 438.219 30.2812 438.219 26.3438C438.219 24.0104 439.115 22.0625 440.906 20.5C442.698 18.9375 445.115 18.1562 448.156 18.1562C449.698 18.1562 451.135 18.3229 452.469 18.6562C453.802 18.9688 455.281 19.4271 456.906 20.0312L457.219 27.4375H455.688C454 24.9375 452.323 23.0521 450.656 21.7812C449.01 20.5104 447.385 19.875 445.781 19.875C444.781 19.875 443.948 20.2083 443.281 20.875C442.635 21.5208 442.312 22.2396 442.312 23.0312C442.312 24.0521 442.719 24.8646 443.531 25.4688C444.344 26.0521 446.052 26.9271 448.656 28.0938C451.26 29.2604 453.542 30.3854 455.5 31.4688C456.729 32.1146 457.708 33.0208 458.438 34.1875C459.167 35.3542 459.531 36.625 459.531 38C459.531 39.6042 459.062 41.0833 458.125 42.4375C457.208 43.7917 455.927 44.8646 454.281 45.6562C452.656 46.4479 450.823 46.8438 448.781 46.8438C445.885 46.8438 442.531 46.0521 438.719 44.4688ZM439.875 39.0312V42.9375C440.917 43.3958 442.646 43.9479 445.062 44.5938C443.771 43.6979 442.812 42.8958 442.188 42.1875C441.562 41.4792 440.792 40.4271 439.875 39.0312ZM455.188 43C455.75 42.4792 456.167 42.0104 456.438 41.5938C456.708 41.1562 456.844 40.5729 456.844 39.8438C456.844 37.6146 455.219 35.8438 451.969 34.5312C449.052 33.3229 446.75 32.2604 445.062 31.3438C443.375 30.4062 442.156 29.4479 441.406 28.4688C440.656 27.4688 440.281 26.2292 440.281 24.75C440.281 23.8542 440.531 22.8542 441.031 21.75C440.49 22.4167 440.052 23.0833 439.719 23.75C439.406 24.3958 439.25 25.1979 439.25 26.1562C439.25 28.1354 439.958 29.7396 441.375 30.9688C442.792 32.1979 444.896 33.4479 447.688 34.7188C450.479 35.9688 452.49 37 453.719 37.8125C454.948 38.6042 455.562 39.7083 455.562 41.125C455.562 41.6458 455.438 42.2708 455.188 43ZM454.938 24.6875L454.656 21.0938C453.281 20.5312 452.208 20.1458 451.438 19.9375C450.667 19.7292 449.542 19.625 448.062 19.625C449.625 20.1667 450.865 20.8021 451.781 21.5312C452.719 22.2396 453.771 23.2917 454.938 24.6875ZM465.688 38.4375V20.6562H462.344V19.0625C464.177 17.6875 465.552 16.6354 466.469 15.9062C467.385 15.1562 468.25 14.3229 469.062 13.4062C469.896 12.4896 470.604 11.5312 471.188 10.5312H472.844V18.6875H480.594V20.6562H472.844V39.3438C472.844 40.7188 473.01 41.75 473.344 42.4375C473.677 43.1042 474.24 43.4375 475.031 43.4375C475.781 43.4375 476.469 43.2292 477.094 42.8125C477.74 42.3958 478.521 41.75 479.438 40.875L480.594 42.0938C479.031 43.6979 477.594 44.8958 476.281 45.6875C474.99 46.4583 473.5 46.8438 471.812 46.8438C470.208 46.8438 468.958 46.4896 468.062 45.7812C467.167 45.0729 466.542 44.1146 466.188 42.9062C465.854 41.6771 465.688 40.1875 465.688 38.4375ZM468.75 15.3438L466.688 17.0625V37.8125C466.688 40.5833 467.042 42.6042 467.75 43.875C468.479 45.125 469.771 45.75 471.625 45.75C472.604 45.75 473.583 45.5938 474.562 45.2812C472.667 45.3438 471.219 44.9062 470.219 43.9688C469.24 43.0104 468.75 41.4271 468.75 39.2188V15.3438ZM493.844 18.1562V40.75C493.844 41.7083 493.938 42.4375 494.125 42.9375C494.333 43.4167 494.708 43.75 495.25 43.9375C495.812 44.125 496.667 44.2396 497.812 44.2812V46H483.219V44.2812C484.51 44.2396 485.406 43.9792 485.906 43.5C486.427 43.0208 486.688 42.1667 486.688 40.9375V26.5938C486.688 25.6979 486.385 24.8646 485.781 24.0938C485.177 23.3229 484.323 22.75 483.219 22.375V21.375L492.562 18.1562H493.844ZM487.719 26.6875V41.5312C487.719 42.7396 487.292 43.6562 486.438 44.2812C487.583 44.2812 488.417 44.0208 488.938 43.5C489.479 42.9792 489.75 42.125 489.75 40.9375V26.2812C489.75 24.9479 489.427 23.9271 488.781 23.2188C488.135 22.4896 487.292 22.125 486.25 22.125C485.771 22.125 485.385 22.1458 485.094 22.1875C486.844 23.1042 487.719 24.6042 487.719 26.6875ZM490 2.9375C490.792 2.9375 491.531 3.13542 492.219 3.53125C492.906 3.90625 493.448 4.42708 493.844 5.09375C494.24 5.76042 494.438 6.48958 494.438 7.28125C494.438 8.07292 494.24 8.8125 493.844 9.5C493.448 10.1667 492.906 10.6979 492.219 11.0938C491.531 11.4896 490.792 11.6875 490 11.6875C488.812 11.6875 487.792 11.25 486.938 10.375C486.083 9.5 485.656 8.46875 485.656 7.28125C485.656 6.51042 485.844 5.79167 486.219 5.125C486.615 4.4375 487.146 3.90625 487.812 3.53125C488.5 3.13542 489.229 2.9375 490 2.9375ZM490.531 3.9375C489.302 3.9375 488.354 4.22917 487.688 4.8125C487.021 5.39583 486.688 6.19792 486.688 7.21875C486.688 8.19792 487.01 9.01042 487.656 9.65625C488.302 10.2812 489.26 10.625 490.531 10.6875C489.865 10.0833 489.375 9.55208 489.062 9.09375C488.75 8.61458 488.594 8.01042 488.594 7.28125C488.594 5.92708 489.24 4.8125 490.531 3.9375ZM519.406 21.875C519.406 21.3125 519.115 20.8438 518.531 20.4688C517.948 20.0729 517.24 19.875 516.406 19.875C514.844 19.875 513.427 20.3333 512.156 21.25C510.885 22.1458 509.885 23.4479 509.156 25.1562C508.448 26.8438 508.094 28.7604 508.094 30.9062C508.094 32.8854 508.51 34.6875 509.344 36.3125C510.198 37.9167 511.333 39.1667 512.75 40.0625C514.188 40.9583 515.75 41.4062 517.438 41.4062C518.833 41.4062 520.292 41.0938 521.812 40.4688C523.354 39.8229 524.583 39 525.5 38L526.594 39.4688C524.948 41.8438 522.969 43.6667 520.656 44.9375C518.365 46.2083 516.031 46.8438 513.656 46.8438C511.448 46.8438 509.333 46.2396 507.312 45.0312C505.312 43.8229 503.708 42.1875 502.5 40.125C501.312 38.0417 500.719 35.7708 500.719 33.3125C500.719 31.3125 501.083 29.4062 501.812 27.5938C502.542 25.7812 503.583 24.1667 504.938 22.75C506.312 21.3125 507.938 20.1875 509.812 19.375C511.688 18.5625 513.76 18.1562 516.031 18.1562C517.865 18.1562 519.531 18.4375 521.031 19C522.531 19.5417 523.708 20.3021 524.562 21.2812C525.438 22.2604 525.875 23.3333 525.875 24.5C525.875 25.5208 525.5 26.3646 524.75 27.0312C524 27.6979 523.115 28.0312 522.094 28.0312C521.156 28.0312 520.375 27.7083 519.75 27.0625C519.146 26.3958 518.844 25.6875 518.844 24.9375C518.844 24.7917 518.938 24.3229 519.125 23.5312C519.312 22.7188 519.406 22.1667 519.406 21.875ZM519.875 24.9375C519.875 25.6042 520.125 26.1042 520.625 26.4375C521.146 26.7708 521.708 26.9375 522.312 26.9375C522.5 26.9375 523.01 26.8542 523.844 26.6875C522.552 26.4167 521.906 25.75 521.906 24.6875C521.906 24.6042 521.948 24.3646 522.031 23.9688C522.135 23.5729 522.188 23.2396 522.188 22.9688C522.188 21.8229 521.375 20.9479 519.75 20.3438C520.208 20.9896 520.438 21.5833 520.438 22.125C520.438 22.4792 520.344 22.9583 520.156 23.5625C519.969 24.1667 519.875 24.625 519.875 24.9375ZM511.094 20.0938C509.094 20.8438 507.396 21.875 506 23.1875C504.625 24.5 503.573 26.0312 502.844 27.7812C502.115 29.5104 501.75 31.2708 501.75 33.0625C501.75 35.5 502.333 37.6875 503.5 39.625C504.667 41.5625 506.198 43.0729 508.094 44.1562C510.01 45.2188 511.948 45.75 513.906 45.75C516.76 45.75 519.448 44.8125 521.969 42.9375C519.24 43.8333 517.042 44.2812 515.375 44.2812C513.25 44.2812 511.302 43.8021 509.531 42.8438C507.76 41.8854 506.354 40.5521 505.312 38.8438C504.271 37.1354 503.75 35.2292 503.75 33.125C503.75 30.6875 504.375 28.3542 505.625 26.125C506.896 23.875 508.719 21.8646 511.094 20.0938ZM543.625 46H529.156V44.2812H529.625C530.771 44.2812 531.583 44.0938 532.062 43.7188C532.562 43.3438 532.854 42.8958 532.938 42.375C533.021 41.8542 533.062 41.0521 533.062 39.9688V11.3125C533.062 9.75 532.792 8.51042 532.25 7.59375C531.729 6.65625 530.698 5.95833 529.156 5.5V4.28125L539.094 0.9375H540.312V33.1875C545.208 28.4792 547.656 25.1771 547.656 23.2812C547.656 22.5312 547.365 21.9062 546.781 21.4062C546.219 20.9062 545.333 20.5938 544.125 20.4688V18.6875H557.438V20.4688C557.229 20.5104 556.938 20.5833 556.562 20.6875C556.188 20.7917 555.781 20.9271 555.344 21.0938C554.927 21.2396 554.479 21.4688 554 21.7812C553.521 22.0729 552.99 22.5104 552.406 23.0938C551.365 24.1771 550.802 24.7708 550.719 24.875L548.688 27.5L553.875 37.4375C554.958 39.4583 555.938 41.0104 556.812 42.0938C557.708 43.1771 558.688 43.9062 559.75 44.2812V46H546.438V44.2812C547.854 44.0938 548.562 43.6042 548.562 42.8125C548.562 42.5625 548.49 42.3021 548.344 42.0312C548.198 41.7396 547.906 41.2083 547.469 40.4375L543.312 32.6875L540.312 35.5625V41.5938C540.312 43.3229 541.417 44.2188 543.625 44.2812V46ZM552.594 20.4062H547.094C548.156 21.1771 548.688 22.1146 548.688 23.2188C548.688 23.6562 548.562 24.1875 548.312 24.8125C549.979 22.625 551.406 21.1562 552.594 20.4062ZM550.094 38.7188L545.625 30.375L544.125 31.8438L548.688 40.625C548.833 40.875 548.969 41.1042 549.094 41.3125C549.219 41.5208 549.333 41.75 549.438 42C549.542 42.25 549.594 42.5 549.594 42.75C549.594 43.2083 549.292 43.7188 548.688 44.2812C549.562 44.2604 550.229 44.0521 550.688 43.6562C551.146 43.2604 551.375 42.7396 551.375 42.0938C551.375 41.4688 550.948 40.3438 550.094 38.7188ZM536.219 40.875V11.8125C536.219 10 536.104 8.625 535.875 7.6875C535.667 6.72917 535.167 6.02083 534.375 5.5625C533.583 5.08333 532.312 4.88542 530.562 4.96875C531.958 5.57292 532.896 6.34375 533.375 7.28125C533.854 8.21875 534.094 9.5 534.094 11.125V40.625C534.094 41.6458 534.01 42.4271 533.844 42.9688C533.677 43.4896 533.292 43.9896 532.688 44.4688C535.042 44.4062 536.219 43.2083 536.219 40.875Z" fill="white"/>
</svg>
