<svg width="26" height="30" viewBox="0 0 26 30" fill="none" xmlns="http://www.w3.org/2000/svg">
<path d="M9.28571 6.84375C9.28571 4.84434 10.9513 3.21875 13 3.21875C15.0487 3.21875 16.7143 4.84434 16.7143 6.84375V9.5625H9.28571V6.84375ZM6.5 9.5625H2.78571C1.24777 9.5625 0 10.7803 0 12.2812V24.0625C0 27.0645 2.49554 29.5 5.57143 29.5H20.4286C23.5045 29.5 26 27.0645 26 24.0625V12.2812C26 10.7803 24.7522 9.5625 23.2143 9.5625H19.5V6.84375C19.5 3.3377 16.5924 0.5 13 0.5C9.40759 0.5 6.5 3.3377 6.5 6.84375V9.5625ZM7.89286 12.2812C8.26227 12.2812 8.61654 12.4245 8.87776 12.6794C9.13897 12.9343 9.28571 13.2801 9.28571 13.6406C9.28571 14.0012 9.13897 14.3469 8.87776 14.6018C8.61654 14.8568 8.26227 15 7.89286 15C7.52345 15 7.16917 14.8568 6.90796 14.6018C6.64675 14.3469 6.5 14.0012 6.5 13.6406C6.5 13.2801 6.64675 12.9343 6.90796 12.6794C7.16917 12.4245 7.52345 12.2812 7.89286 12.2812ZM16.7143 13.6406C16.7143 13.2801 16.861 12.9343 17.1222 12.6794C17.3835 12.4245 17.7377 12.2812 18.1071 12.2812C18.4766 12.2812 18.8308 12.4245 19.092 12.6794C19.3533 12.9343 19.5 13.2801 19.5 13.6406C19.5 14.0012 19.3533 14.3469 19.092 14.6018C18.8308 14.8568 18.4766 15 18.1071 15C17.7377 15 17.3835 14.8568 17.1222 14.6018C16.861 14.3469 16.7143 14.0012 16.7143 13.6406Z" fill="white"/>
</svg>
