<svg width="14" height="14" viewBox="0 0 14 14" fill="none" xmlns="http://www.w3.org/2000/svg">
<path d="M13.2749 2.4709C13.7957 1.93379 13.7957 1.06152 13.2749 0.524414C12.754 -0.0126953 11.9082 -0.0126953 11.3874 0.524414L6.99987 5.05332L2.6082 0.528711C2.08737 -0.0083985 1.24154 -0.0083985 0.720703 0.528711C0.19987 1.06582 0.19987 1.93809 0.720703 2.47519L5.11237 6.9998L0.72487 11.5287C0.204037 12.0658 0.204037 12.9381 0.72487 13.4752C1.2457 14.0123 2.09154 14.0123 2.61237 13.4752L6.99987 8.94629L11.3915 13.4709C11.9124 14.008 12.7582 14.008 13.279 13.4709C13.7999 12.9338 13.7999 12.0615 13.279 11.5244L8.88737 6.9998L13.2749 2.4709Z" fill="#CDC8C8"/>
</svg>
