<svg width="16" height="16" viewBox="0 0 16 16" fill="none" xmlns="http://www.w3.org/2000/svg">
<path d="M8 1.25C6.66498 1.25 5.35994 1.64588 4.2499 2.38758C3.13987 3.12928 2.27471 4.18349 1.76382 5.41689C1.25292 6.65029 1.11925 8.00749 1.3797 9.31686C1.64015 10.6262 2.28303 11.829 3.22703 12.773C4.17104 13.717 5.37377 14.3599 6.68314 14.6203C7.99252 14.8808 9.34971 14.7471 10.5831 14.2362C11.8165 13.7253 12.8707 12.8601 13.6124 11.7501C14.3541 10.6401 14.75 9.33502 14.75 8C14.748 6.2104 14.0362 4.49466 12.7708 3.22922C11.5053 1.96378 9.78961 1.25199 8 1.25ZM8.75 13.1956V9.75H10C10.1989 9.75 10.3897 9.67098 10.5303 9.53033C10.671 9.38968 10.75 9.19891 10.75 9C10.75 8.80109 10.671 8.61032 10.5303 8.46967C10.3897 8.32902 10.1989 8.25 10 8.25H8.75V7C8.75 6.80109 8.82902 6.61032 8.96967 6.46967C9.11033 6.32902 9.30109 6.25 9.5 6.25H10.5C10.6989 6.25 10.8897 6.17098 11.0303 6.03033C11.171 5.88968 11.25 5.69891 11.25 5.5C11.25 5.30109 11.171 5.11032 11.0303 4.96967C10.8897 4.82902 10.6989 4.75 10.5 4.75H9.5C8.90327 4.75 8.33097 4.98705 7.90901 5.40901C7.48706 5.83097 7.25 6.40326 7.25 7V8.25H6C5.80109 8.25 5.61032 8.32902 5.46967 8.46967C5.32902 8.61032 5.25 8.80109 5.25 9C5.25 9.19891 5.32902 9.38968 5.46967 9.53033C5.61032 9.67098 5.80109 9.75 6 9.75H7.25V13.1956C5.93631 13.006 4.7432 12.3258 3.91078 11.292C3.07836 10.2582 2.66843 8.94741 2.76348 7.62351C2.85853 6.29961 3.45151 5.06085 4.42309 4.15654C5.39466 3.25222 6.6727 2.74947 8 2.74947C9.32731 2.74947 10.6053 3.25222 11.5769 4.15654C12.5485 5.06085 13.1415 6.29961 13.2365 7.62351C13.3316 8.94741 12.9216 10.2582 12.0892 11.292C11.2568 12.3258 10.0637 13.006 8.75 13.1956Z" fill="white"/>
</svg>
