<svg width="14" height="14" viewBox="0 0 14 14" fill="none" xmlns="http://www.w3.org/2000/svg">
<path d="M7 3.88889C6.38468 3.88889 5.78318 4.07135 5.27156 4.41321C4.75994 4.75506 4.36118 5.24095 4.12571 5.80943C3.89024 6.37791 3.82863 7.00345 3.94867 7.60695C4.06871 8.21044 4.36502 8.76479 4.80011 9.19989C5.23521 9.63498 5.78956 9.93129 6.39305 10.0513C6.99655 10.1714 7.62209 10.1098 8.19057 9.87429C8.75905 9.63882 9.24494 9.24006 9.58679 8.72844C9.92865 8.21682 10.1111 7.61532 10.1111 7C10.1103 6.17515 9.7822 5.38432 9.19894 4.80106C8.61568 4.2178 7.82485 3.88975 7 3.88889ZM7 8.55556C6.69234 8.55556 6.39159 8.46432 6.13578 8.2934C5.87997 8.12247 5.68059 7.87953 5.56285 7.59529C5.44512 7.31104 5.41431 6.99827 5.47433 6.69653C5.53436 6.39478 5.68251 6.1176 5.90006 5.90006C6.1176 5.68251 6.39478 5.53436 6.69653 5.47433C6.99827 5.41431 7.31104 5.44512 7.59529 5.56285C7.87953 5.68059 8.12247 5.87997 8.2934 6.13578C8.46432 6.39159 8.55556 6.69234 8.55556 7C8.55556 7.41256 8.39167 7.80822 8.09994 8.09994C7.80822 8.39167 7.41256 8.55556 7 8.55556ZM10.1111 0H3.88889C2.85786 0.00120077 1.8694 0.411307 1.14036 1.14036C0.411307 1.8694 0.00120077 2.85786 0 3.88889V10.1111C0.00120077 11.1421 0.411307 12.1306 1.14036 12.8596C1.8694 13.5887 2.85786 13.9988 3.88889 14H10.1111C11.1421 13.9988 12.1306 13.5887 12.8596 12.8596C13.5887 12.1306 13.9988 11.1421 14 10.1111V3.88889C13.9988 2.85786 13.5887 1.8694 12.8596 1.14036C12.1306 0.411307 11.1421 0.00120077 10.1111 0ZM12.4444 10.1111C12.4444 10.7299 12.1986 11.3234 11.761 11.761C11.3234 12.1986 10.7299 12.4444 10.1111 12.4444H3.88889C3.27005 12.4444 2.67656 12.1986 2.23897 11.761C1.80139 11.3234 1.55556 10.7299 1.55556 10.1111V3.88889C1.55556 3.27005 1.80139 2.67656 2.23897 2.23897C2.67656 1.80139 3.27005 1.55556 3.88889 1.55556H10.1111C10.7299 1.55556 11.3234 1.80139 11.761 2.23897C12.1986 2.67656 12.4444 3.27005 12.4444 3.88889V10.1111ZM11.4074 3.62963C11.4074 3.83474 11.3466 4.03524 11.2326 4.20578C11.1187 4.37632 10.9567 4.50924 10.7672 4.58773C10.5777 4.66622 10.3692 4.68675 10.1681 4.64674C9.96689 4.60673 9.78211 4.50796 9.63707 4.36293C9.49204 4.21789 9.39327 4.03311 9.35326 3.83195C9.31324 3.63078 9.33378 3.42227 9.41227 3.23277C9.49076 3.04328 9.62368 2.88132 9.79422 2.76736C9.96476 2.65341 10.1653 2.59259 10.3704 2.59259C10.6454 2.59259 10.9092 2.70185 11.1037 2.89633C11.2981 3.09082 11.4074 3.35459 11.4074 3.62963Z" fill="white"/>
</svg>
