<svg width="26" height="30" viewBox="0 0 26 30" fill="none" xmlns="http://www.w3.org/2000/svg">
<path d="M13 15C14.9702 15 16.8597 14.2362 18.2528 12.8765C19.6459 11.5169 20.4286 9.67282 20.4286 7.75C20.4286 5.82718 19.6459 3.98311 18.2528 2.62348C16.8597 1.26384 14.9702 0.5 13 0.5C11.0298 0.5 9.14033 1.26384 7.74721 2.62348C6.35408 3.98311 5.57143 5.82718 5.57143 7.75C5.57143 9.67282 6.35408 11.5169 7.74721 12.8765C9.14033 14.2362 11.0298 15 13 15ZM10.3478 17.7188C4.63125 17.7188 0 22.2387 0 27.8178C0 28.7467 0.771875 29.5 1.72366 29.5H24.2763C25.2281 29.5 26 28.7467 26 27.8178C26 22.2387 21.3687 17.7188 15.6522 17.7188H10.3478Z" fill="white"/>
</svg>
