<svg width="14" height="15" viewBox="0 0 14 15" fill="none" xmlns="http://www.w3.org/2000/svg">
<path d="M4.225 0.518555L4 0.9375H1C0.446875 0.9375 0 1.35645 0 1.875C0 2.39355 0.446875 2.8125 1 2.8125H13C13.5531 2.8125 14 2.39355 14 1.875C14 1.35645 13.5531 0.9375 13 0.9375H10L9.775 0.518555C9.60625 0.199219 9.25938 0 8.88125 0H5.11875C4.74062 0 4.39375 0.199219 4.225 0.518555ZM13 3.75H1L1.6625 13.6816C1.7125 14.4229 2.36875 15 3.15937 15H10.8406C11.6312 15 12.2875 14.4229 12.3375 13.6816L13 3.75Z" fill="#827777"/>
</svg>
