<svg width="20" height="17" viewBox="0 0 20 17" fill="none" xmlns="http://www.w3.org/2000/svg">
<path d="M10.625 2.43102C7.55469 2.43102 4.95703 4.38493 4.07422 7.07868C5.38672 6.43369 6.86719 6.07326 8.4375 6.07326H11.875C12.2188 6.07326 12.5 6.34643 12.5 6.68031C12.5 7.01418 12.2188 7.28735 11.875 7.28735H11.25H8.4375C7.78906 7.28735 7.16016 7.35943 6.55078 7.49222C5.53906 7.71607 4.60156 8.11444 3.76172 8.65698C1.49609 10.1253 0 12.6331 0 15.4824V16.0894C0 16.594 0.417969 17 0.9375 17C1.45703 17 1.875 16.594 1.875 16.0894V15.4824C1.875 13.6347 2.68359 11.9729 3.97656 10.8082C4.75 13.6727 7.43359 15.7859 10.625 15.7859H10.6641C15.8242 15.7594 20 10.8196 20 4.73019C20 3.11394 19.707 1.57737 19.1758 0.192556C19.0742 -0.06923 18.6797 -0.0578479 18.543 0.188762C17.8086 1.52425 16.3555 2.43102 14.6875 2.43102H10.625Z" fill="white"/>
</svg>
