<svg width="14" height="19" viewBox="0 0 14 19" fill="none" xmlns="http://www.w3.org/2000/svg">
<path d="M14 11.6965C11.991 16.9874 7.17799 13.7865 7.17799 13.7865C5.70129 16.9525 3.26199 18.9884 0.447139 19C-0.139896 19 -0.158127 18.0556 0.447139 18.0556C2.79528 18.044 4.84079 16.4029 6.17894 13.7943C4.68036 14.4097 1.85457 14.8741 0.286707 10.6128C4.26105 8.87492 6.08778 11.0462 6.78785 12.3738C7.14882 11.4294 7.4077 10.4037 7.57543 9.28906C7.57543 9.28906 2.48171 10.1367 2.12438 5.49216C6.46699 3.63822 7.68846 8.46079 7.68846 8.46079C7.7468 7.81442 7.80878 6.42493 7.80878 6.39397C7.80878 6.39397 3.93289 3.54145 6.41959 0C10.9627 1.66429 8.65834 6.2856 8.65834 6.2856C8.67657 6.34752 8.67657 7.20676 8.65834 7.57833C8.65834 7.57833 10.3064 4.13363 13.6317 5.35282C13.4786 10.5392 8.4578 9.47097 8.4578 9.47097C8.29737 10.5315 8.04943 11.5378 7.72857 12.4706C7.72857 12.4706 10.7549 8.9175 14 11.6965Z" fill="white"/>
</svg>
