<svg width="22" height="20" viewBox="0 0 22 20" fill="none" xmlns="http://www.w3.org/2000/svg">
<path d="M11.8245 6.19141L12.7068 0.773438C12.7794 0.328125 13.1575 0 13.6006 0C13.8871 0 14.1544 0.136719 14.3263 0.371094L14.9719 1.25H16.9619C17.447 1.25 17.913 1.44922 18.2567 1.80078L18.9443 2.5H21.0833C21.5913 2.5 22 2.91797 22 3.4375V4.375C22 6.10156 20.6326 7.5 18.9443 7.5H17.722H17.1109H16.2973L16.1025 8.69141L11.8245 6.19141ZM15.8886 10.0039V18.75C15.8886 19.4414 15.3424 20 14.6663 20H13.444C12.7679 20 12.2217 19.4414 12.2217 18.75V14.25C11.305 14.7305 10.266 15 9.16599 15C8.06593 15 7.02699 14.7305 6.11027 14.25V18.75C6.11027 19.4414 5.56406 20 4.88799 20H3.6657C2.98962 20 2.44341 19.4414 2.44341 18.75V9.75781C1.34336 9.33203 0.480117 8.37891 0.182184 7.16016L0.0370379 6.55469C-0.127207 5.88672 0.270036 5.20703 0.927015 5.03906C1.58399 4.87109 2.24479 5.27734 2.40904 5.94922L2.558 6.55469C2.69169 7.10938 3.18061 7.5 3.74209 7.5H4.88799H5.49913H11.6029L15.8886 10.0039ZM17.722 3.125C17.722 2.95924 17.6576 2.80027 17.543 2.68306C17.4284 2.56585 17.2729 2.5 17.1109 2.5C16.9488 2.5 16.7933 2.56585 16.6787 2.68306C16.5641 2.80027 16.4997 2.95924 16.4997 3.125C16.4997 3.29076 16.5641 3.44973 16.6787 3.56694C16.7933 3.68415 16.9488 3.75 17.1109 3.75C17.2729 3.75 17.4284 3.68415 17.543 3.56694C17.6576 3.44973 17.722 3.29076 17.722 3.125Z" fill="white"/>
</svg>
